<?xml version="1.0" encoding="UTF-8"?>
<svg width="205px" height="205px" viewBox="0 0 205 265" version="1.1" xmlns="http://www.w3.org/2000/svg" xmlns:xlink="http://www.w3.org/1999/xlink">
    <!-- Generator: Sketch 52.2 (67145) - http://www.bohemiancoding.com/sketch -->
    <title>PICTOS / Apprentissage</title>
    <desc>Created with Sketch.</desc>
    <g id="Tools-Kit" stroke="none" stroke-width="1" fill="none" fill-rule="evenodd">
        <g id="11_Pictos" transform="translate(-637.000000, -146.000000)">
            <g id="PICTOS-/-Apprentissage" transform="translate(640, 180) scale(3.0)" fill="#F8005B">
                <path d="M34.5312431,34.5312431 L30.4687569,34.5312431 L30.4687569,29.4531906 C30.4687569,28.335913 31.3828329,27.4220581 32.4998894,27.4220581 C33.6171671,27.4220581 34.5312431,28.335913 34.5312431,29.4531906 L34.5312431,34.5312431 Z M37.578163,29.4531906 C37.578163,26.6094724 35.3438288,24.3749171 32.4998894,24.3749171 C29.6563923,24.3749171 27.421837,26.6094724 27.421837,29.4531906 L27.421837,37.578163 L37.578163,37.578163 L37.578163,29.4531906 Z M60.9375138,60.9375138 L48.7500553,60.9375138 L48.7500553,44.6875691 L56.8750276,44.6875691 L56.8750276,36.5625967 L60.9375138,36.5625967 L60.9375138,60.9375138 Z M46.7189227,18.2812984 L18.2812984,18.2812984 C16.5546367,18.2812984 15.2343785,16.960819 15.2343785,15.2343785 L15.2343785,4.06248618 L19.2968646,4.06248618 L19.2968646,12.1874585 L30.4687569,12.1874585 L30.4687569,4.06248618 L34.5312431,4.06248618 L34.5312431,12.1874585 L45.7031354,12.1874585 L45.7031354,4.06248618 L49.7656215,4.06248618 L49.7656215,15.2343785 C49.7656215,16.960819 48.4453633,18.2812984 46.7189227,18.2812984 Z M44.6875691,40.6250829 L44.6875691,60.9375138 L41.6406492,60.9375138 L41.6406492,49.7656215 C41.6406492,44.6875691 37.578163,40.6250829 32.4998894,40.6250829 C27.421837,40.6250829 23.3593508,44.6875691 23.3593508,49.7656215 L23.3593508,60.9375138 L20.3124309,60.9375138 L20.3124309,22.3437845 L44.6875691,22.3437845 L44.6875691,40.6250829 Z M37.578163,60.9375138 L27.421837,60.9375138 L27.421837,49.7656215 C27.421837,46.9219033 29.6563923,44.6875691 32.4998894,44.6875691 C35.3438288,44.6875691 37.578163,46.9219033 37.578163,49.7656215 L37.578163,60.9375138 Z M16.2499447,60.9375138 L4.06248618,60.9375138 L4.06248618,36.5625967 L8.12497236,36.5625967 L8.12497236,44.6875691 L16.2499447,44.6875691 L16.2499447,60.9375138 Z M62.9688675,32.4998894 L54.8438951,32.4998894 C53.7266174,32.4998894 52.8125415,33.4139654 52.8125415,34.5312431 L52.8125415,40.6250829 L48.7500553,40.6250829 L48.7500553,22.0390926 C51.6952638,21.1250166 53.8281077,18.4845001 53.8281077,15.2343785 L53.8281077,2.03135365 C53.8281077,0.914075974 52.9140318,0 51.7969752,0 L43.6720028,0 C42.5547252,0 41.6406492,0.914075974 41.6406492,2.03135365 L41.6406492,8.12497236 L38.5937293,8.12497236 L38.5937293,2.03135365 C38.5937293,0.914075974 37.6796533,0 36.5625967,0 L28.4374033,0 C27.3203467,0 26.4062707,0.914075974 26.4062707,2.03135365 L26.4062707,8.12497236 L23.3593508,8.12497236 L23.3593508,2.03135365 C23.3593508,0.914075974 22.4452748,0 21.3282183,0 L13.2032459,0 C12.0859682,0 11.1718923,0.914075974 11.1718923,2.03135365 L11.1718923,15.2343785 C11.1718923,18.4845001 13.3047362,21.1250166 16.2499447,22.0390926 L16.2499447,40.6250829 L12.1874585,40.6250829 L12.1874585,34.5312431 C12.1874585,33.4139654 11.2733826,32.4998894 10.156326,32.4998894 L2.03135365,32.4998894 C0.914075974,32.4998894 0,33.4139654 0,34.5312431 L0,65 L65,65 L65,34.5312431 C65,33.4139654 64.0861451,32.4998894 62.9688675,32.4998894 Z" id="Fill-1"></path>
            </g>
        </g>
    </g>
</svg>