<?xml version="1.0" encoding="UTF-8"?>
<svg width="184px" height="184px" viewBox="0 0 184 236" version="1.1" xmlns="http://www.w3.org/2000/svg" xmlns:xlink="http://www.w3.org/1999/xlink">
    <!-- Generator: Sketch 52.2 (67145) - http://www.bohemiancoding.com/sketch -->
    <title>PICTOS / Cadenas</title>
    <desc>Created with Sketch.</desc>
    <g id="Tools-Kit" stroke="none" stroke-width="1" fill="none" fill-rule="evenodd">
        <g id="10_Pictos" transform="translate(0.000000, -92.000000)">
            <g id="PICTOS-/-Cadenas" transform="translate(-20, 100) scale(6.0)">
                <rect id="Rectangle-TAG-Copy" fill="#D4D4D4" fill-rule="nonzero" x="7.10542736e-15" y="-1.42108547e-14" width="36" height="36" rx="18"></rect>
                <path d="M21.7916911,17.5 L14.2083089,17.5 L14.2083089,13.3437657 C14.2083089,11.2062594 15.9000154,9.48435143 17.9999691,9.48435143 C20.1000463,9.48435143 21.7916911,11.2062594 21.7916911,13.3437657 L21.7916911,17.5 Z M17.9999691,23.7343514 C17.1833513,23.7343514 16.5416525,23.0812594 16.5416525,22.25 C16.5416525,21.4187406 17.1833513,20.7656486 17.9999691,20.7656486 C18.8166487,20.7656486 19.4583475,21.4187406 19.4583475,22.25 C19.4583475,23.0812594 18.8166487,23.7343514 17.9999691,23.7343514 Z M23.8333591,17.5 L23.2500077,17.5 L23.2500077,13.3437657 C23.2500077,10.4046631 20.8875212,8 17.9999691,8 C15.1124788,8 12.7499923,10.4046631 12.7499923,13.3437657 L12.7499923,17.5 L12.1666409,17.5 C11.5250039,17.5 11,18.0343766 11,18.6875314 L11,25.8125314 C11,26.4656234 11.5250039,27 12.1666409,27 L23.8333591,27 C24.4749961,27 25,26.4656234 25,25.8125314 L25,18.6875314 C25,18.0343766 24.4749961,17.5 23.8333591,17.5 Z" id="Fill-1" fill="#000000" fill-rule="evenodd"></path>
            </g>
        </g>
    </g>
</svg>