<?xml version="1.0" encoding="UTF-8"?>
<svg width="205px" height="205px" viewBox="0 0 259 244" version="1.1" xmlns="http://www.w3.org/2000/svg" xmlns:xlink="http://www.w3.org/1999/xlink">
    <!-- Generator: Sketch 52.2 (67145) - http://www.bohemiancoding.com/sketch -->
    <title>PICTOS / Compétences</title>
    <desc>Created with Sketch.</desc>
    <g id="Tools-Kit" stroke="none" stroke-width="1" fill="none" fill-rule="evenodd">
        <g id="11_Pictos" transform="translate(-469.000000, -167.000000)">
            <g id="PICTOS-/-Compétences" transform="translate(480, 200) scale(4.0)" fill="#F8005B">
                <g id="Group-14">
                    <path d="M26.8266547,26.85815 C27.0110297,26.6748167 27.5641547,26.3998167 28.3016547,25.9414833 C29.5000922,25.3914833 31.0672797,24.7498167 33.0032172,24.10815 C33.8329047,23.83315 34.7547797,23.55815 35.6766547,23.1914833 C35.4000922,24.10815 35.1235297,25.0248167 34.7547797,25.8498167 C34.1094672,27.7748167 33.4641547,29.33315 32.9110297,30.5248167 C32.5422797,31.25815 32.1735297,31.80815 31.9891547,31.9924 C30.5141547,33.45815 28.2094672,33.45815 26.7344672,31.9924 C25.3516547,30.6174 25.3516547,28.3257333 26.8266547,26.85815 M24.7985297,34.00815 C27.2875922,36.48315 31.4360297,36.48315 33.9250922,34.00815 C36.4141547,31.5340667 39.6407172,19.2498167 39.6407172,19.2498167 C39.6407172,19.2498167 27.2875922,22.45815 24.7985297,24.93315 C22.3094672,27.4090667 22.3094672,31.5340667 24.7985297,34.00815 M52.8235297,40.33315 L6.17665469,40.33315 C4.51727969,36.9414833 3.68759219,33.18315 3.68759219,29.33315 C3.68759219,15.1248167 15.2110297,3.66648333 29.5000922,3.66648333 C43.7891547,3.66648333 55.3125922,15.1248167 55.3125922,29.33315 C55.3125922,33.18315 54.4829047,36.9414833 52.8235297,40.33315 M29.5000922,-0.000183333333 C13.1829047,-0.000183333333 9.21875e-05,13.10815 9.21875e-05,29.33315 C9.21875e-05,34.6498167 1.47509219,39.6914833 3.96415469,43.9998167 L55.0360297,43.9998167 C57.5250922,39.6914833 59.0000922,34.6498167 59.0000922,29.33315 C59.0000922,13.10815 45.8172797,-0.000183333333 29.5000922,-0.000183333333" id="Fill-1"></path>
                    <path d="M15,13 C16.104,13 17,13.896 17,15 C17,16.104 16.104,17 15,17 C13.896,17 13,16.104 13,15 C13,13.896 13.896,13 15,13" id="Fill-4"></path>
                    <path d="M30,7 C31.657,7 33,8.343 33,10 C33,11.657 31.657,13 30,13 C28.343,13 27,11.657 27,10 C27,8.343 28.343,7 30,7" id="Fill-6"></path>
                    <path d="M10,26 C11.657,26 13,27.343 13,29 C13,30.657 11.657,32 10,32 C8.343,32 7,30.657 7,29 C7,27.343 8.343,26 10,26" id="Fill-8"></path>
                    <path d="M50,26 C51.657,26 53,27.343 53,29 C53,30.657 51.657,32 50,32 C48.343,32 47,30.657 47,29 C47,27.343 48.343,26 50,26" id="Fill-10"></path>
                    <path d="M45,13 C46.104,13 47,13.896 47,15 C47,16.104 46.104,17 45,17 C43.896,17 43,16.104 43,15 C43,13.896 43.896,13 45,13" id="Fill-12"></path>
                </g>
            </g>
        </g>
    </g>
</svg>