<?xml version="1.0" encoding="UTF-8"?>
<svg width="205px" height="205px" viewBox="0 0 281 281" version="1.1" xmlns="http://www.w3.org/2000/svg" xmlns:xlink="http://www.w3.org/1999/xlink">
    <!-- Generator: Sketch 52.2 (67145) - http://www.bohemiancoding.com/sketch -->
    <title>PICTOS / Contenu variés</title>
    <desc>Created with Sketch.</desc>
    <g id="Tools-Kit" stroke="none" stroke-width="1" fill="none" fill-rule="evenodd">
        <g id="11_Pictos" transform="translate(-360.000000, -130.000000)">
            <g id="PICTOS-/-Contenu-variés" transform="translate(380, 140) scale(3.0)" fill="#F8005B">
                <path d="M61.2619346,35.3744586 L63.0945002,33.5418878 L74.0910927,44.5385108 L72.2585271,46.3707819 L61.2619346,35.3744586 Z M27.863988,27.8640653 L43.4160719,27.8640653 L43.4160719,25.2720941 L27.863988,25.2720941 L27.863988,27.8640653 Z M65.4479161,27.8640653 L81,27.8640653 L81,25.2720941 L65.4479161,25.2720941 L65.4479161,27.8640653 Z M53.136012,15.5521271 L55.727976,15.5521271 L55.727976,0 L53.136012,0 L53.136012,15.5521271 Z M53.136012,53.1361594 L55.727976,53.1361594 L55.727976,37.5840324 L53.136012,37.5840324 L53.136012,53.1361594 Z M34.6976747,8.7984372 L36.5302403,6.96616618 L47.5268328,17.9624895 L45.6942672,19.7953599 L34.6976747,8.7984372 Z M60.3571896,17.960092 L71.3537821,6.96346901 L73.1863477,8.79603972 L62.1897553,19.7926627 L60.3571896,17.960092 Z M47.5630945,36.2881966 L44.8416671,33.566462 L54.0431544,24.3649491 L56.7648815,27.0866837 L47.5630945,36.2881966 Z M7.25743937,76.5936639 L4.53601199,73.872229 L42.1199401,36.2881966 L44.8416671,39.0096315 L7.25743937,76.5936639 Z M55.8574394,20.6066058 C54.8208336,19.5696975 53.2654753,19.5696975 52.2285698,20.6066058 L0.777679116,71.9281756 C-0.259226372,72.965084 -0.259226372,74.5201468 0.777679116,75.5570552 L5.44315445,80.2225435 C6.48005994,81.2591522 8.03511849,81.2591522 9.07202397,80.2225435 L60.393751,28.900674 C61.4303568,27.8640653 61.4303568,26.3087028 60.393751,25.2720941 L55.8574394,20.6066058 Z" id="Fill-1"></path>
            </g>
        </g>
    </g>
</svg>