<?xml version="1.0" encoding="UTF-8"?>
<svg width="236px" height="236px" viewBox="0 0 236 236" version="1.1" xmlns="http://www.w3.org/2000/svg" xmlns:xlink="http://www.w3.org/1999/xlink">
    <!-- Generator: Sketch 52.2 (67145) - http://www.bohemiancoding.com/sketch -->
    <title>PICTOS / Epingle OFF</title>
    <desc>Created with Sketch.</desc>
    <defs>
        <polygon id="path-1" points="8 8 30 8 30 30 8 30"></polygon>
    </defs>
    <g id="Tools-Kit" stroke="none" stroke-width="1" fill="none" fill-rule="evenodd">
        <g id="10_Pictos" transform="translate(-26.000000, -92.000000)">
            <g id="PICTOS-/-Epingle-OFF" transform="translate(35, 100) scale(6.0)">
                <rect id="Rectangle-TAG-Copy" fill="#D4D4D4" fill-rule="nonzero" x="7.10542736e-15" y="-1.42108547e-14" width="36" height="36" rx="18"></rect>
                <mask id="mask-2" fill="white">
                    <use xlink:href="#path-1"></use>
                </mask>
                <g id="Clip-2"></g>
                <path d="M27.4042814,15.7990747 C27.3790805,15.6777802 27.294772,15.5775406 27.1820553,15.5326845 C26.1726448,15.1303529 25.102294,14.9266697 24.0017022,14.9266697 C22.2871248,14.9266697 20.962474,15.4164249 20.4506667,15.6384167 L14.9971928,11.0022204 C15.1868868,9.33018708 14.2846947,8.18589931 14.2434569,8.13600836 C14.1788509,8.0554505 14.0821711,8.00555956 13.9786183,8.00006698 C13.8746074,7.99823612 13.7728874,8.03393789 13.6995757,8.10763003 L8.10772587,13.6931275 C8.03441417,13.7663619 7.99500913,13.8684324 8.00050751,13.9737069 C8.00783868,14.0776082 8.05778227,14.1737284 8.13842514,14.2382662 C8.93843905,14.873117 9.91394284,15.0053967 10.5920761,15.0053967 C10.742365,15.0053967 10.8715769,14.9980733 10.9696313,14.9912075 L15.6345463,20.4659379 C15.3156404,21.2829594 14.3438022,24.2274407 15.5213714,27.1810763 C15.5662748,27.2955051 15.666162,27.3797246 15.7880427,27.404899 C15.8114108,27.4085607 15.8366117,27.4117647 15.8613544,27.4117647 C15.9584924,27.4117647 16.0510484,27.3742321 16.1211527,27.3046594 L21.46191,21.9695321 L26.4356506,26.9380296 C26.5075877,27.0094331 26.6006019,27.0455926 26.6954489,27.0455926 C26.7884631,27.0455926 26.8833101,27.0094331 26.9552472,26.9380296 C27.098205,26.7952225 27.098205,26.564534 26.9552472,26.4212692 L21.9792157,21.4509409 L27.3057688,16.1318336 C27.3914518,16.0439523 27.4290241,15.9189961 27.4042814,15.7990747" id="Fill-1" fill="#FFFFFF" fill-rule="evenodd" mask="url(#mask-2)"></path>
            </g>
        </g>
    </g>
</svg>
