<?xml version="1.0" encoding="UTF-8"?>
<svg width="211px" height="210px" viewBox="0 0 211 210" version="1.1" xmlns="http://www.w3.org/2000/svg" xmlns:xlink="http://www.w3.org/1999/xlink">
    <!-- Generator: Sketch 52.2 (67145) - http://www.bohemiancoding.com/sketch -->
    <title>PICTOS / Fermer</title>
    <desc>Created with Sketch.</desc>
    <g id="Tools-Kit" stroke="none" stroke-width="1" fill="none" fill-rule="evenodd">
        <g id="10_Pictos" transform="translate(-581.000000, -193.000000)" fill="#FFFFFF">
            <g id="PICTOS-/-Fermer" transform="translate(610, 230) scale(13.0)">
                <path d="M6.26755983,4.94221457 L10.8443218,0.821049897 C11.0355332,0.648881638 11.0530044,0.35200823 10.8833601,0.157975471 C10.7137159,-0.0360807728 10.4211947,-0.0537884344 10.2300064,0.118356339 L5.43465765,4.43637197 L0.774704941,0.122677572 C0.585877063,-0.0521444871 0.293124428,-0.038476239 0.120888411,0.153184539 C-0.0513476063,0.344821831 -0.0379028762,0.641930089 0.150948143,0.816728664 L4.73240769,5.05778407 L0.15566884,9.17894874 C-0.0355425277,9.35109352 -0.0530137346,9.64799041 0.116630528,9.84202317 C0.286251649,10.0360559 0.578796017,10.0537871 0.769984244,9.88161882 L5.56530988,5.56362667 L10.2252626,9.87732107 C10.4141136,10.0521431 10.7068662,10.0384749 10.8791023,9.84683759 C11.0513846,9.65517681 11.0379167,9.35806855 10.8490657,9.18326998 L6.26755983,4.94221457 Z" id="Fill-1"></path>
            </g>
        </g>
    </g>
</svg>