<?xml version="1.0" encoding="UTF-8"?>
<svg width="200px" height="200px" viewBox="0 0 232 221" version="1.1" xmlns="http://www.w3.org/2000/svg" xmlns:xlink="http://www.w3.org/1999/xlink">
    <!-- Generator: Sketch 52.2 (67145) - http://www.bohemiancoding.com/sketch -->
    <title>PICTOS / Langue EN</title>
    <desc>Created with Sketch.</desc>
    <g id="Tools-Kit" stroke="none" stroke-width="1" fill="none" fill-rule="evenodd">
        <g id="10_Pictos" transform="translate(-238.000000, -190.000000)">
            <g id="PICTOS-/-Langue-EN" transform="translate(250, 240) scale(6.0)">
                <polygon id="Fill-1" fill="#012169" points="-3.55271368e-15 21 32 21 32 0 -3.55271368e-15 0"></polygon>
                <path d="M16,8.02077975 L21.3650685,10.375 L32,5.70839674 L32,1 L16,8.02077975 Z M-3.55271368e-15,5.70839674 L10.6349315,10.375 L16,8.02077975 L-3.55271368e-15,1 L-3.55271368e-15,5.70839674 Z M16,12.7291765 L32,19.75 L32,15.0415595 L21.3650685,10.375 L16,12.7291765 Z M-3.55271368e-15,15.0415595 L-3.55271368e-15,19.75 L16,12.7291765 L10.6349315,10.375 L-3.55271368e-15,15.0415595 Z" id="Fill-2" fill="#FFFFFF"></path>
                <polygon id="Fill-3" fill="#FFFFFF" points="12.0011907 0 12.0011907 7.00136719 -3.55271368e-15 7.00136719 -3.55271368e-15 13.9986328 12.0011907 13.9986328 12.0011907 21 19.9988592 21 19.9988592 13.9986328 32 13.9986328 32 7.00136719 19.9988592 7.00136719 19.9988592 0"></polygon>
                <path d="M13.5997656,0 L13.5997656,8.4 L-3.55271368e-15,8.4 L-3.55271368e-15,12.6 L13.5997656,12.6 L13.5997656,21 L18.4002344,21 L18.4002344,12.6 L32,12.6 L32,8.4 L18.4002344,8.4 L18.4002344,0 L13.5997656,0 Z M20.4254322,7.00136719 L24.002344,7.00136719 L32,3.5017308 L32,1.93650474 L20.4254322,7.00136719 Z M-3.55271368e-15,5.06748047 L4.42074421,7.00136719 L7.99765602,7.00136719 L-3.55271368e-15,3.5017308 L-3.55271368e-15,5.06748047 Z M24.002344,13.9986328 L32,17.4983128 L32,15.9325195 L27.5793057,13.9986328 L24.002344,13.9986328 Z M7.99765602,13.9986328 L-3.55271368e-15,17.4983128 L-3.55271368e-15,19.0640625 L11.5792558,13.9986328 L7.99765602,13.9986328 Z" id="Fill-4" fill="#C8102E"></path>
            </g>
        </g>
    </g>
</svg>