<?xml version="1.0" encoding="UTF-8"?>
<svg width="180px" height="228px" viewBox="0 0 180 228" version="1.1" xmlns="http://www.w3.org/2000/svg" xmlns:xlink="http://www.w3.org/1999/xlink">
    <!-- Generator: Sketch 52.2 (67145) - http://www.bohemiancoding.com/sketch -->
    <title>PICTOS / Like OFF</title>
    <desc>Created with Sketch.</desc>
    <g id="Tools-Kit" stroke="none" stroke-width="1" fill="none" fill-rule="evenodd">
        <g id="10_Pictos" transform="translate(0.000000, -184.000000)">
            <rect fill="#FFFFFF" x="0" y="0" width="842" height="595"></rect>
            <g id="PICTOS-/-Like-OFF" transform="translate(53.000000, 284.000000)" fill="#777777">
                <path d="M4.5,21 C4.77613333,21 5,21.2238667 5,21.5 C5,21.7761333 4.77613333,22 4.5,22 C4.22386667,22 4,21.7761333 4,21.5 C4,21.2238667 4.22386667,21 4.5,21" id="Fill-1"></path>
                <path d="M8.29261869,11.5170135 C9.75842197,11.230339 11.1930777,10.274757 12.4881925,8.71055273 C13.7527826,7.18290428 14.7781597,5.15758361 15.2310449,3.29195416 L15.5630777,1.92399691 L15.7680285,1.92399691 C16.7983892,1.92399691 17.636881,2.78722732 17.636881,3.84798741 L17.636881,4.80934133 C17.636881,6.10098029 17.244422,8.57843872 16.7423236,9.68409192 L14.8336023,9.68409192 C14.317799,9.68409192 13.8991761,10.1150658 13.8991761,10.6460872 C13.8991761,11.1771086 14.317799,11.6080824 14.8336023,11.6080824 L24.1778646,11.6080824 C24.6931072,11.6080824 25.1122908,12.0396976 25.1122908,12.5700777 C25.1122908,13.1003936 24.6931072,13.5320729 24.1778646,13.5320729 L22.3090121,13.5320729 C21.7932089,13.5320729 21.3745859,13.9630468 21.3745859,14.4940682 C21.3745859,15.0250895 21.7932089,15.4560634 22.3090121,15.4560634 L24.1778646,15.4560634 C24.6931072,15.4560634 25.1122908,15.8876786 25.1122908,16.4180587 C25.1122908,16.9483746 24.6931072,17.3800539 24.1778646,17.3800539 L22.3090121,17.3800539 C21.7932089,17.3800539 21.3745859,17.8110278 21.3745859,18.3420492 C21.3745859,18.8730705 21.7932089,19.3040444 22.3090121,19.3040444 L24.1778646,19.3040444 C24.6931072,19.3040444 25.1122908,19.7356596 25.1122908,20.2660397 C25.1122908,20.7963556 24.6931072,21.2280349 24.1778646,21.2280349 L22.3090121,21.2280349 C21.7932089,21.2280349 21.3745859,21.6590088 21.3745859,22.1900302 C21.3745859,22.7210515 21.7932089,23.1520254 22.3090121,23.1520254 C22.8242548,23.1520254 23.2434384,23.5836406 23.2434384,24.1140207 C23.2434384,24.6443366 22.8242548,25.0760159 22.3090121,25.0760159 L14.4810121,25.0760159 C13.5752416,25.0760159 12.6800613,24.926586 11.8210121,24.6315741 L8.29261869,23.4207428 L8.01976623,25.3549945 L11.2304548,26.4567998 C12.2801269,26.8172273 13.3740285,27.0000064 14.4810121,27.0000064 L22.3090121,27.0000064 C23.8545531,27.0000064 25.1122908,25.7050967 25.1122908,24.1140207 C25.1122908,23.7388425 25.0425203,23.3796976 24.9154384,23.0506952 C26.1040285,22.7165622 26.9811433,21.5948758 26.9811433,20.2660397 C26.9811433,19.5278686 26.7101597,18.8531893 26.2653728,18.3420492 C26.7101597,17.830909 26.9811433,17.1562297 26.9811433,16.4180587 C26.9811433,15.6798876 26.7101597,15.0052083 26.2653728,14.4940682 C26.7101597,13.982928 26.9811433,13.3082487 26.9811433,12.5700777 C26.9811433,10.9789375 25.7234056,9.68409192 24.1778646,9.68409192 L18.7370121,9.68409192 C19.2758646,8.00060024 19.5057334,5.76684727 19.5057334,4.80934133 L19.5057334,3.84798741 C19.5057334,1.72646722 17.8287498,6.41330166e-06 15.7680285,6.41330166e-06 L14.8336023,6.41330166e-06 C14.4050121,6.41330166e-06 14.0312416,0.300148931 13.9272089,0.728557482 L13.418258,2.8250658 C12.7049793,5.7610753 10.4405531,9.00043397 8.09701213,9.58917506" id="Fill-3"></path>
                <path d="M7.35394253,24.15 C7.35394253,24.6737667 6.94150892,25.1 6.43469971,25.1 L1.83848563,25.1 L1.83848563,9.9 L6.43469971,9.9 C6.94150892,9.9 7.35394253,10.3262333 7.35394253,10.85 L7.35394253,24.15 Z M9,9.80626667 C8.59614599,8.74986667 7.59907395,8 6.43469971,8 L0.919242816,8 C0.411820782,8 0,8.4256 0,8.95 L0,26.05 C0,26.5744 0.411820782,27 0.919242816,27 L6.43469971,27 C7.53104998,27 8.47970857,26.3356333 8.92400926,25.3755 L9,9.80626667 Z" id="Fill-6" stroke="#777777" stroke-width="0.5"></path>
            </g>
        </g>
    </g>
</svg>