<?xml version="1.0" encoding="utf-8"?>
<!-- Generator: Adobe Illustrator 22.0.1, SVG Export Plug-In . SVG Version: 6.00 Build 0)  -->
<svg version="1.1" id="Calque_1" xmlns="http://www.w3.org/2000/svg" xmlns:xlink="http://www.w3.org/1999/xlink" x="0px" y="0px"
	 viewBox="0 0 71 22" style="enable-background:new 0 0 71 22;" xml:space="preserve" height="31" width="120">
<style type="text/css">
	.st0{fill:#031435;}
	.st1{fill:#00A3DA;}
	.st2{enable-background:new    ;}
	.st3{fill:#0C1C49;}
</style>
<title>Group 2</title>
<desc>Created with Sketch.</desc>
<g id="Symboles">
	<g id="HEADER" transform="translate(-234.000000, -36.000000)">
		<g id="Group-2" transform="translate(234.000000, 36.000000)">
			<g id="Amundi_compact_4c" transform="translate(14.000000, 0.000000)">
				<g>
					<path id="Fill-1" class="st0" d="M7,0.3H5L0.1,12.2h2.8l1-2.3h4.4l1,2.3h2.8L7,0.3z M4.6,7.6L6,3.9l0,0l0,0l1.4,3.7H4.6z"/>
					<path id="Fill-2" class="st0" d="M42.8,4c-1-0.9-2.5-0.8-3.3-0.6c-0.1,0-0.8,0.2-1.3,0.8l-0.1-0.7h-2.4v8.7h2.6v-6
						c0.2-0.2,0.5-0.4,0.7-0.5c0.3-0.2,0.9-0.4,1.5,0c0.5,0.3,0.7,0.9,0.7,1.6v4.9h2.6V7.1C43.9,5.2,43.2,4.4,42.8,4"/>
					<path id="Fill-3" class="st0" d="M14.7,3.5h-2.4v8.7h2.6v-6c0.2-0.2,0.4-0.4,0.7-0.5c0.3-0.1,1-0.4,1.5,0
						c0.4,0.3,0.4,1.2,0.4,1.4v5.1h2.6V7c0-0.3,0-0.6-0.1-0.9c0.2-0.2,0.5-0.3,0.8-0.4c0.6-0.3,1.3-0.1,1.5,0
						c0.5,0.3,0.5,1.1,0.5,1.5v5.1h2.6V7c0-1-0.1-2.2-1-2.9c-0.9-0.8-2.2-0.8-2.4-0.8c-1.6,0-2.8,0.9-2.8,0.9
						c-0.6-0.6-2-1.2-3.2-0.7c-0.1,0-0.8,0.2-1.3,0.8L14.7,3.5"/>
					<path id="Fill-4" class="st0" d="M34.6,3.5H32v6c-0.2,0.2-0.4,0.3-0.7,0.4c-0.3,0.1-0.9,0.3-1.5,0.1c-0.6-0.2-0.7-1.2-0.7-1.6
						V3.5h-2.6v5.2c0,1,0.2,2,0.8,2.8c0.7,0.8,1.7,1,2.7,1c0.4,0,0.9-0.2,1.3-0.4c0.3-0.1,0.6-0.3,0.8-0.6l0.1,0.7h2.4V3.5"/>
					<path id="Fill-5" class="st0" d="M50.1,0.3v3.2c-0.4-0.1-0.9-0.2-1.3-0.2c-1.7,0-2.6,0.8-3,1.2c-0.8,0.8-1.3,2-1.3,3.2
						c0,2.9,1.5,4,2.3,4.4c0.5,0.2,1.1,0.4,1.7,0.3c0.5,0,1.2-0.2,1.8-0.7l0.1,0.5h2.4V0.3H50.1z M50.1,9.6C50,9.8,49.7,9.9,49.5,10
						c-0.9,0.4-2.1,0-2.3-1.6c-0.1-0.6-0.1-1.1,0.1-1.7c0.2-0.5,0.7-1.3,1.8-1.3c0.3,0,0.6,0.1,1,0.2V9.6z"/>
					<path id="Fill-6" class="st0" d="M56.9,1.5c0,0.7-0.5,1.4-1.5,1.4c-1,0-1.5-0.7-1.5-1.4c0-0.7,0.6-1.4,1.5-1.4
						C56.4,0.1,56.9,0.8,56.9,1.5"/>
					<polygon id="Fill-7" class="st0" points="54.1,12.2 56.7,12.2 56.7,3.5 54.1,3.5 					"/>
					<polygon id="Fill-8" class="st0" points="0.2,16.7 56.7,16.7 56.7,14.4 0.2,14.4 					"/>
					<path id="Fill-9" class="st1" d="M12.1,21.9l1.1-2.9h0.7l1.1,2.9h-0.8L14,21.4h-1l-0.2,0.5H12.1z M13.2,20.8h0.6l-0.3-0.9
						L13.2,20.8z"/>
					<polyline id="Fill-10" class="st1" points="20.6,21.9 20.6,18.9 22.7,18.9 22.7,19.6 21.4,19.6 21.4,20.1 22.4,20.1 22.4,20.7 
						21.4,20.7 21.4,21.2 22.8,21.2 22.8,21.9 20.6,21.9 					"/>
					<polyline id="Fill-11" class="st1" points="23.8,21.9 23.8,19.6 23,19.6 23,18.9 25.4,18.9 25.4,19.6 24.6,19.6 24.6,21.9 
						23.8,21.9 					"/>
					<polyline id="Fill-12" class="st1" points="26.7,21.9 26.7,18.9 27.5,18.9 28.2,20.7 28.9,18.9 29.7,18.9 29.7,21.9 28.9,21.9 
						28.9,20.4 28.3,21.9 28,21.9 27.4,20.4 27.4,21.9 26.7,21.9 					"/>
					<path id="Fill-13" class="st1" d="M30,21.9l1.1-2.9h0.7l1.1,2.9h-0.8L32,21.4h-1l-0.2,0.5H30z M31.2,20.8h0.6l-0.3-0.9
						L31.2,20.8z"/>
					<polyline id="Fill-14" class="st1" points="33.4,21.9 33.4,18.9 34.2,18.9 35.1,20.5 35.1,18.9 35.9,18.9 35.9,21.9 35.2,21.9 
						34.2,20.2 34.2,21.9 33.4,21.9 					"/>
					<path id="Fill-15" class="st1" d="M36.3,21.9l1.1-2.9h0.7l1.1,2.9h-0.8l-0.2-0.5h-1l-0.2,0.5H36.3z M37.4,20.8h0.6l-0.3-0.9
						L37.4,20.8z"/>
					<polyline id="Fill-16" class="st1" points="42.4,21.9 42.4,18.9 44.5,18.9 44.5,19.6 43.2,19.6 43.2,20.1 44.3,20.1 44.3,20.7 
						43.2,20.7 43.2,21.2 44.6,21.2 44.6,21.9 42.4,21.9 					"/>
					<polyline id="Fill-17" class="st1" points="45.1,21.9 45.1,18.9 45.9,18.9 46.6,20.7 47.3,18.9 48.1,18.9 48.1,21.9 47.4,21.9 
						47.4,20.4 46.8,21.9 46.5,21.9 45.8,20.4 45.8,21.9 45.1,21.9 					"/>
					<polyline id="Fill-18" class="st1" points="48.8,21.9 48.8,18.9 50.8,18.9 50.8,19.6 49.5,19.6 49.5,20.1 50.6,20.1 50.6,20.7 
						49.5,20.7 49.5,21.2 50.9,21.2 50.9,21.9 48.8,21.9 					"/>
					<polyline id="Fill-19" class="st1" points="51.4,21.9 51.4,18.9 52.2,18.9 53.2,20.5 53.2,18.9 53.9,18.9 53.9,21.9 53.2,21.9 
						52.2,20.2 52.2,21.9 51.4,21.9 					"/>
					<polyline id="Fill-20" class="st1" points="55.1,21.9 55.1,19.6 54.3,19.6 54.3,18.9 56.7,18.9 56.7,19.6 55.9,19.6 55.9,21.9 
						55.1,21.9 					"/>
					<path id="Fill-21" class="st1" d="M15.8,21c0.1,0.1,0.2,0.2,0.3,0.2c0.1,0.1,0.3,0.1,0.4,0.1c0.1,0,0.3,0,0.3-0.1
						c0.1-0.1,0-0.2-0.1-0.3c-0.1-0.1-0.2-0.1-0.3-0.1c-0.3-0.1-0.6-0.2-0.8-0.4c-0.2-0.2-0.3-0.5-0.2-0.8c0.1-0.4,0.4-0.7,0.8-0.7
						c0.4-0.1,0.9,0,1.2,0.3c0.1,0.1,0.1,0.1,0.2,0.2L17,19.8c0,0-0.1-0.1-0.1-0.1c-0.1-0.1-0.2-0.2-0.4-0.2c-0.1,0-0.3,0-0.4,0
						c-0.1,0.1-0.1,0.2-0.1,0.3c0.1,0.1,0.2,0.1,0.3,0.2c0.3,0.1,0.6,0.2,0.8,0.3c0.2,0.2,0.3,0.4,0.3,0.7c0,0.9-1.2,1.1-1.8,0.8
						c-0.2-0.1-0.4-0.2-0.5-0.4L15.8,21"/>
					<path id="Fill-22" class="st1" d="M18.3,21c0.1,0.1,0.2,0.2,0.3,0.2c0.1,0.1,0.3,0.1,0.4,0.1c0.1,0,0.3,0,0.3-0.1
						c0.1-0.1,0-0.2-0.1-0.3c-0.1-0.1-0.2-0.1-0.3-0.1c-0.3-0.1-0.6-0.2-0.8-0.4c-0.2-0.2-0.3-0.5-0.2-0.8c0.1-0.4,0.4-0.7,0.8-0.7
						c0.4-0.1,0.9,0,1.2,0.3c0.1,0.1,0.1,0.1,0.2,0.2l-0.5,0.4c0,0-0.1-0.1-0.1-0.1c-0.1-0.1-0.2-0.2-0.4-0.2c-0.1,0-0.3,0-0.4,0
						c-0.1,0.1-0.1,0.2-0.1,0.3c0.1,0.1,0.2,0.1,0.3,0.2c0.3,0.1,0.6,0.2,0.8,0.3c0.2,0.2,0.3,0.4,0.3,0.7c0,0.9-1.2,1.1-1.8,0.8
						c-0.2-0.1-0.4-0.2-0.5-0.4L18.3,21"/>
					<path id="Fill-23" class="st1" d="M40.7,20.8v-0.6h1.1v1.5c-0.4,0.1-0.8,0.2-0.9,0.2c-0.5,0-1-0.1-1.3-0.5
						c-0.2-0.3-0.3-0.6-0.3-0.9c0-0.3,0-0.7,0.2-1c0.2-0.4,0.5-0.6,1-0.7c0.4-0.1,0.9,0,1.2,0.4c0.1,0.1,0.1,0.2,0.2,0.3l-0.7,0.3
						c-0.1-0.1-0.1-0.2-0.2-0.3c-0.2-0.2-0.5-0.1-0.6,0c-0.2,0.2-0.2,0.4-0.2,0.6c0,0.8,0.3,0.9,0.4,1c0.1,0.1,0.4,0,0.5,0v-0.4
						H40.7"/>
				</g>
			</g>
			<g class="st2">
				<path class="st3" d="M5.2,9.6c0,0.8-0.2,1.4-0.5,1.8c-0.4,0.5-0.8,0.7-1.5,0.7c-0.3,0-0.6-0.1-0.8-0.2s-0.4-0.3-0.6-0.6L1.6,12
					h-1V4.5h1.2v2.9C1.9,7.2,2.1,7,2.3,6.9c0.2-0.1,0.5-0.2,0.8-0.2c0.6,0,1.1,0.3,1.5,0.8C5,8,5.2,8.7,5.2,9.5V9.6z M4,9.5
					c0-0.5-0.1-1-0.3-1.3C3.5,7.8,3.2,7.7,2.8,7.7c-0.3,0-0.5,0.1-0.6,0.2C2,8,1.9,8.1,1.8,8.3v2.2C1.9,10.7,2,10.9,2.2,11
					c0.2,0.1,0.4,0.2,0.7,0.2c0.4,0,0.7-0.1,0.9-0.4C3.9,10.4,4,10.1,4,9.6V9.5z"/>
				<path class="st3" d="M7.8,9.9l0.1,0.5h0l1.1-3.6h1.3l-2.1,6c-0.1,0.4-0.3,0.7-0.6,0.9c-0.2,0.3-0.6,0.4-1.1,0.4
					c-0.1,0-0.2,0-0.3,0C6.2,14,6.1,14,6,14l0.1-0.9c0,0,0.1,0,0.2,0c0.1,0,0.1,0,0.2,0c0.2,0,0.4-0.1,0.5-0.2s0.2-0.3,0.3-0.5
					l0.2-0.5L5.6,6.8h1.3L7.8,9.9z"/>
			</g>
		</g>
	</g>
</g>
</svg>
