<?xml version="1.0" encoding="UTF-8"?>
<svg width="99px" height="30px" viewBox="0 0 99 30" version="1.1" xmlns="http://www.w3.org/2000/svg" xmlns:xlink="http://www.w3.org/1999/xlink">
    <!-- Generator: Sketch 52.2 (67145) - http://www.bohemiancoding.com/sketch -->
    <title>LOGO AMUNDI</title>
    <desc>Created with Sketch.</desc>
    <g id="Page-1" stroke="none" stroke-width="1" fill="none" fill-rule="evenodd">
        <g id="Desktop---Home-FR" transform="translate(-375.000000, -3365.000000)">
            <g id="FOOTER" transform="translate(0.000000, 3119.000000)">
                <g id="LOGO-AMUNDI" transform="translate(375.000000, 246.000000)">
                    <g id="Amundi_compact_FONCE" transform="translate(20.000000, 0.000000)">
                        <g id="Amundi_compact_4c">
                            <path d="M9.74453873,0.405137615 L6.9600669,0.405137615 L0.147985915,16.5748624 L3.99895775,16.5748624 L5.33110915,13.4287156 L11.3737746,13.4287156 L12.7059261,16.5748624 L16.5571761,16.5748624 L9.74453873,0.405137615 Z M6.399,10.3588073 L8.35202465,5.31357798 L8.35230282,5.3146789 L8.35285915,5.31357798 L10.3056056,10.3588073 L6.399,10.3588073 Z" id="Fill-1" fill="#FFFFFF"></path>
                            <path d="M59.4388768,5.4506422 C58.0789085,4.26990826 55.926993,4.3246789 54.903331,4.6733945 C54.7250246,4.73449541 53.8448979,5.01275229 53.129169,5.7066055 L52.9809049,4.73752294 L49.6506655,4.73752294 L49.6506655,16.5748624 L53.3049718,16.5748624 L53.3049718,8.41100917 C53.6042817,8.14513761 53.9458732,7.91724771 54.2952535,7.71990826 C54.6752324,7.50577982 55.5840106,7.23550459 56.3642746,7.66926606 C57.0048979,8.02513761 57.2975317,8.85798165 57.2975317,9.8606422 L57.2975317,16.5748624 L60.951838,16.5748624 L60.951838,9.62394495 C60.951838,7.07449541 60.0032817,5.94082569 59.4388768,5.4506422" id="Fill-2" fill="#FFFFFF"></path>
                            <path d="M20.4156585,4.73752294 L17.0564894,4.73752294 L17.0564894,16.5748624 L20.7116303,16.5748624 L20.7116303,8.38431193 C20.997588,8.11981651 21.3274965,7.88862385 21.6796585,7.72073394 C22.0871761,7.52642202 23.0983204,7.17330275 23.8290704,7.77908257 C24.3957007,8.24889908 24.4182324,9.35807339 24.4182324,9.67293578 L24.4182324,16.5748624 L28.048338,16.5748624 L28.048338,9.48550459 C28.048338,9.05201835 27.9988239,8.62651376 27.929838,8.19880734 C28.2625282,7.97614679 28.635831,7.81678899 29.0024577,7.65577982 C29.8341831,7.29 30.7841303,7.47192661 31.0937324,7.68550459 C31.763007,8.14788991 31.8303239,9.19541284 31.8303239,9.67293578 L31.8303239,16.5748624 L35.4601514,16.5748624 L35.4601514,9.53366972 C35.4601514,8.23981651 35.2760035,6.6112844 34.1018521,5.5593578 C32.9185211,4.49972477 31.0965141,4.47137615 30.7154225,4.4606422 C28.4678169,4.49504587 26.7679261,5.68513761 26.7679261,5.68513761 C25.9587324,4.86770642 23.9712148,4.10504587 22.3380845,4.6733945 C22.1603345,4.73559633 21.2796514,5.01275229 20.5639225,5.7066055 L20.4156585,4.73752294" id="Fill-3" fill="#FFFFFF"></path>
                            <path d="M48.0447958,4.73752294 L44.3910458,4.73752294 L44.3910458,12.9363303 C44.0934049,13.1565138 43.7707289,13.3621101 43.4374824,13.5266972 C43.0708556,13.7077982 42.161243,13.9387156 41.3929401,13.6461468 C40.5670563,13.3315596 40.4454965,12.0082569 40.4454965,11.4297248 L40.4454965,4.73752294 L36.790912,4.73752294 L36.790912,11.7349541 C36.790912,13.0488991 37.0265211,14.4754128 37.9411408,15.4885321 C38.8654965,16.5121101 40.3231021,16.893578 41.6738908,16.8011009 C42.2972676,16.7584404 42.9084049,16.5877982 43.4650211,16.3081651 C43.8511197,16.1144037 44.24,15.8691743 44.5420915,15.5598165 L44.697588,16.5748624 L48.0447958,16.5748624 L48.0447958,4.73752294" id="Fill-4" fill="#FFFFFF"></path>
                            <path d="M69.5697923,0.405963303 L69.5697923,4.69486239 C68.9797958,4.5412844 68.3722746,4.45678899 67.7616937,4.45678899 C65.4172852,4.45678899 64.1318662,5.55743119 63.6016761,6.08394495 C62.4481092,7.22807339 61.8386408,8.85770642 61.8302958,10.456789 C61.8102676,14.3452294 63.9591232,15.886789 65.0256232,16.3717431 C65.7318944,16.6929358 66.5494331,16.8721101 67.3269155,16.8236697 C68.0131585,16.7812844 69.0387676,16.4991743 69.762007,15.8570642 L69.8718838,16.5748624 L73.2018451,16.5748624 L73.2018451,0.405963303 L69.5697923,0.405963303 Z M69.5697923,13.0059633 C69.3539331,13.296055 69.0101162,13.4922936 68.6790951,13.6257798 C67.4150951,14.1366055 65.801993,13.5630275 65.4623486,11.4286239 C65.3402324,10.6590826 65.3471866,9.92972477 65.6378732,9.18550459 C65.9035246,8.5059633 66.6131338,7.45541284 68.1909085,7.46449541 C68.6195669,7.46697248 69.0802148,7.54376147 69.5697923,7.71082569 L69.5697923,13.0059633 Z" id="Fill-5" fill="#FFFFFF"></path>
                            <path d="M78.9991655,2.0606422 C78.9991655,3.07458716 78.2820458,3.99633028 76.8778486,3.99633028 C75.4730951,3.99633028 74.7562535,3.07458716 74.7562535,2.0606422 C74.7562535,1.04697248 75.5468099,0.136513761 76.8778486,0.136513761 C78.208331,0.136513761 78.9991655,1.04697248 78.9991655,2.0606422" id="Fill-6" fill="#FFFFFF"></path>
                            <polygon id="Fill-7" fill="#FFFFFF" points="75.0622394 16.5748624 78.6929014 16.5748624 78.6929014 4.73752294 75.0622394 4.73752294"></polygon>
                            <polygon id="Fill-8" fill="#FFFFFF" points="0.288739437 22.6684404 78.6929014 22.6684404 78.6929014 19.6208257 0.288739437 19.6208257"></polygon>
                            <path d="M16.7190704,29.7140367 L18.2882218,25.7102752 L19.2999225,25.7102752 L20.8810352,29.7140367 L19.7177324,29.7140367 L19.4573662,29.0248624 L18.1004577,29.0248624 L17.8336937,29.7140367 L16.7190704,29.7140367 Z M18.3366232,28.209633 L19.2089613,28.209633 L18.7727923,26.992844 L18.3366232,28.209633 Z" id="Fill-9" fill="#00A3DA"></path>
                            <polyline id="Fill-10" fill="#00A3DA" points="28.5746338 29.7140367 28.5746338 25.716055 31.4522923 25.716055 31.4522923 26.6331193 29.6592148 26.6331193 29.6592148 27.2925688 31.1190458 27.2925688 31.1190458 28.1377982 29.6592148 28.1377982 29.6592148 28.7911927 31.5796937 28.7911927 31.5796937 29.7140367 28.5746338 29.7140367"></polyline>
                            <polyline id="Fill-11" fill="#00A3DA" points="33.0275634 29.7140367 33.0275634 26.6331193 31.894581 26.6331193 31.894581 25.716055 35.2387289 25.716055 35.2387289 26.6331193 34.1179859 26.6331193 34.1179859 29.7140367 33.0275634 29.7140367"></polyline>
                            <polyline id="Fill-12" fill="#00A3DA" points="36.9892465 29.7140367 36.9892465 25.716055 38.1038697 25.716055 39.1097289 28.0959633 40.0607887 25.716055 41.1815317 25.716055 41.1815317 29.7140367 40.1333908 29.7140367 40.1333908 27.7601835 39.3278134 29.7382569 38.8855246 29.7382569 38.0373873 27.7483486 38.0373873 29.7140367 36.9892465 29.7140367"></polyline>
                            <path d="M41.6783415,29.7140367 L43.247493,25.7102752 L44.2589155,25.7102752 L45.8403063,29.7140367 L44.6770035,29.7140367 L44.4166373,29.0248624 L43.0597289,29.0248624 L42.7929648,29.7140367 L41.6783415,29.7140367 Z M43.2958944,28.209633 L44.1682324,28.209633 L43.7320634,26.992844 L43.2958944,28.209633 Z" id="Fill-13" fill="#00A3DA"></path>
                            <polyline id="Fill-14" fill="#00A3DA" points="46.3371162 29.7140367 46.3371162 25.716055 47.4336585 25.716055 48.7482852 27.8322936 48.7482852 25.716055 49.8142289 25.716055 49.8142289 29.7140367 48.8267289 29.7140367 47.3972183 27.4544037 47.3972183 29.7140367 46.3371162 29.7140367"></polyline>
                            <path d="M50.3107606,29.7140367 L51.8801901,25.7102752 L52.8918908,25.7102752 L54.4730035,29.7140367 L53.3099789,29.7140367 L53.0493345,29.0248624 L51.6924261,29.0248624 L51.425662,29.7140367 L50.3107606,29.7140367 Z M51.9285915,28.209633 L52.8006514,28.209633 L52.3647606,26.992844 L51.9285915,28.209633 Z" id="Fill-15" fill="#00A3DA"></path>
                            <polyline id="Fill-16" fill="#00A3DA" points="58.8711338 29.7140367 58.8711338 25.716055 61.7485141 25.716055 61.7485141 26.6331193 59.9554366 26.6331193 59.9554366 27.2925688 61.4152676 27.2925688 61.4152676 28.1377982 59.9554366 28.1377982 59.9554366 28.7911927 61.8759155 28.7911927 61.8759155 29.7140367 58.8711338 29.7140367"></polyline>
                            <polyline id="Fill-17" fill="#00A3DA" points="62.5543697 29.7140367 62.5543697 25.716055 63.668993 25.716055 64.6745739 28.0959633 65.625912 25.716055 66.7466549 25.716055 66.7466549 29.7140367 65.6987923 29.7140367 65.6987923 27.7601835 64.8929366 29.7382569 64.4506479 29.7382569 63.6022324 27.7483486 63.6022324 29.7140367 62.5543697 29.7140367"></polyline>
                            <polyline id="Fill-18" fill="#00A3DA" points="67.6490352 29.7140367 67.6490352 25.716055 70.5269718 25.716055 70.5269718 26.6331193 68.7336162 26.6331193 68.7336162 27.2925688 70.1937254 27.2925688 70.1937254 28.1377982 68.7336162 28.1377982 68.7336162 28.7911927 70.6540951 28.7911927 70.6540951 29.7140367 67.6490352 29.7140367"></polyline>
                            <polyline id="Fill-19" fill="#00A3DA" points="71.3328275 29.7140367 71.3328275 25.716055 72.4290915 25.716055 73.7437183 27.8322936 73.7437183 25.716055 74.8099401 25.716055 74.8099401 29.7140367 73.8227183 29.7140367 72.3926514 27.4544037 72.3926514 29.7140367 71.3328275 29.7140367"></polyline>
                            <polyline id="Fill-20" fill="#00A3DA" points="76.4817359 29.7140367 76.4817359 26.6331193 75.3487535 26.6331193 75.3487535 25.716055 78.6929014 25.716055 78.6929014 26.6331193 77.5721585 26.6331193 77.5721585 29.7140367 76.4817359 29.7140367"></polyline>
                            <path d="M21.9108169,28.5214679 C21.9995528,28.6334862 22.12,28.7320183 22.2713239,28.8181651 C22.4357218,28.9111927 22.6254331,28.9505505 22.8140317,28.9466972 C22.9664683,28.9436697 23.188169,28.9120183 23.2707852,28.7650459 C23.3586866,28.6078899 23.2810775,28.4273394 23.1383768,28.3381651 C22.9926162,28.2473394 22.8215423,28.1950459 22.6588134,28.1422018 C22.2888486,28.0219266 21.8882852,27.9198165 21.5845246,27.6657798 C21.2799296,27.4109174 21.1772852,27.0140367 21.2446021,26.6322936 C21.3441866,26.0653211 21.868257,25.7468807 22.4076268,25.6651376 C22.9723099,25.5792661 23.6443662,25.6709174 24.073581,26.0757798 C24.1623169,26.1597248 24.2351972,26.2436697 24.2916655,26.3276147 L23.5648099,26.8849541 C23.5322641,26.8370642 23.4922077,26.7872477 23.4435282,26.7349541 C23.3169613,26.5995413 23.1386549,26.5034862 22.9561761,26.466055 C22.7901092,26.4319266 22.5784225,26.4308257 22.4259859,26.5144954 C22.2821725,26.5940367 22.2190282,26.7822936 22.3297394,26.9177064 C22.4362782,27.0481651 22.6265458,27.1062385 22.7806514,27.1588073 C23.152007,27.2856881 23.5550739,27.3712844 23.8808099,27.5997248 C24.1976444,27.8218349 24.3528627,28.1576147 24.3581479,28.5379817 C24.3756725,29.79 22.7138908,30.043211 21.8048345,29.5973394 C21.5322289,29.4633028 21.3191514,29.2945872 21.1656021,29.0909174 L21.9108169,28.5214679" id="Fill-21" fill="#00A3DA"></path>
                            <path d="M25.4488486,28.5209174 C25.5375845,28.6329358 25.6577535,28.7314679 25.8093556,28.8176147 C25.9737535,28.9106422 26.1634648,28.95 26.3520634,28.9458716 C26.5045,28.942844 26.7262007,28.9114679 26.8088169,28.7644954 C26.8967183,28.6073394 26.8191092,28.426789 26.6764085,28.3376147 C26.5306479,28.246789 26.3592958,28.1944954 26.1965669,28.1416514 C25.8268803,28.0213761 25.4260387,27.9192661 25.1225563,27.6652294 C24.8176831,27.410367 24.7153169,27.0134862 24.7826338,26.6317431 C24.8822183,26.0647706 25.4062887,25.746055 25.9453803,25.6645872 C26.5103415,25.5787156 27.1823979,25.670367 27.6116127,26.0752294 C27.7003486,26.1591743 27.7729507,26.2431193 27.8296972,26.3270642 L27.1028415,26.8844037 C27.0702958,26.8362385 27.0299613,26.7866972 26.9815599,26.7344037 C26.854993,26.5987156 26.6764085,26.5029358 26.4942077,26.4655046 C26.3278627,26.4311009 26.1164542,26.43 25.9640176,26.513945 C25.8202042,26.5934862 25.7570599,26.7817431 25.8677711,26.9168807 C25.9743099,27.0476147 26.1645775,27.1056881 26.3186831,27.1582569 C26.6900387,27.2848624 27.0931056,27.3707339 27.4185634,27.5991743 C27.7356761,27.8212844 27.8908944,28.1570642 27.8961796,28.5374312 C27.9137042,29.7894495 26.2519225,30.0426606 25.3428662,29.596789 C25.0702606,29.4627523 24.8571831,29.2940367 24.7036338,29.090367 L25.4488486,28.5209174" id="Fill-22" fill="#00A3DA"></path>
                            <path d="M56.4986303,28.3194495 L56.4986303,27.5265138 L58.089757,27.5265138 L58.089757,29.5568807 C57.5495528,29.7588991 56.9943275,29.7855963 56.7809718,29.7985321 C56.0660775,29.8411927 55.4310176,29.6785321 55.0001338,29.116789 C54.7328134,28.7680734 54.6187641,28.329633 54.5965106,27.8983486 C54.5731444,27.4491743 54.6323944,26.9887156 54.8371268,26.5827523 C55.1011092,26.0578899 55.5959718,25.7237615 56.1823521,25.6513761 C56.7659507,25.5787156 57.4293838,25.6970642 57.8163169,26.1715596 C57.9092254,26.2855046 57.9882254,26.413211 58.0527606,26.5530275 L57.1481549,27.009633 C57.0755528,26.8577064 56.9893204,26.7390826 56.8905704,26.6551376 C56.6449472,26.4481651 56.251338,26.506789 56.0296373,26.7159633 C55.8037641,26.9292661 55.7297711,27.2386239 55.7094648,27.5369725 C55.6415915,28.5586239 56.1503627,28.8068807 56.3175423,28.8745872 C56.509757,28.9524771 56.815743,28.9422936 57.0755528,28.9021101 L57.0755528,28.3194495 L56.4986303,28.3194495" id="Fill-23" fill="#00A3DA"></path>
                        </g>
                    </g>
                    <text id="by" font-family="Roboto-MediumItalic, Roboto" font-size="14" font-style="italic" font-weight="500" fill="#009EE0">
                        <tspan x="0" y="18">by</tspan>
                    </text>
                </g>
            </g>
        </g>
    </g>
</svg>