<?xml version="1.0" encoding="UTF-8"?>
<svg width="257px" height="45px" viewBox="0 0 257 45" version="1.1" xmlns="http://www.w3.org/2000/svg" xmlns:xlink="http://www.w3.org/1999/xlink">
    <!-- Generator: Sketch 52.2 (67145) - http://www.bohemiancoding.com/sketch -->
    <title>le logo phileas-v2</title>
    <desc>Created with Sketch.</desc>
    <g id="Page-1" stroke="none" stroke-width="1" fill="none" fill-rule="evenodd">
        <g id="Desktop---Home-FR" transform="translate(-90.000000, -3340.000000)">
            <g id="FOOTER" transform="translate(0.000000, 3119.000000)">
                <g id="le-logo-phileas-v2" transform="translate(218.500000, 243.500000) rotate(-360.000000) translate(-218.500000, -243.500000) translate(90.000000, 221.000000)">
                    <g id="le-logo-phileas-FONCE">
                        <g id="le-logo-phileas-v2">
                            <g id="Group" fill-rule="nonzero">
                                <path d="M0.116079494,23.1796875 C0.116079494,22.921875 0.325022584,22.6875 0.603613369,22.6875 L6.52366757,22.6875 C9.63459801,22.6875 12.165131,25.2421875 12.165131,28.3125 C12.165131,31.4765625 9.61138211,34.03125 6.54688347,34.03125 L3.41273713,34.03125 L3.41273713,40.0078125 C3.41273713,40.265625 3.18057814,40.5 2.92520325,40.5 L0.603613369,40.5 C0.325022584,40.5 0.116079494,40.265625 0.116079494,40.0078125 L0.116079494,23.1796875 Z M6.33794038,30.9375 C7.75411021,30.9375 8.93812105,29.7890625 8.93812105,28.2890625 C8.93812105,26.8828125 7.75411021,25.828125 6.33794038,25.828125 L3.41273713,25.828125 L3.41273713,30.9375 L6.33794038,30.9375 Z" id="Shape" fill="#FFFFFF"></path>
                                <path d="M15.6242999,23.1796875 C15.6242999,22.921875 15.8564589,22.6875 16.1118338,22.6875 L18.4566396,22.6875 C18.7352304,22.6875 18.9441734,22.921875 18.9441734,23.1796875 L18.9441734,29.9296875 L25.6535682,29.9296875 L25.6535682,23.1796875 C25.6535682,22.921875 25.8625113,22.6875 26.1411021,22.6875 L28.462692,22.6875 C28.7180668,22.6875 28.9502258,22.921875 28.9502258,23.1796875 L28.9502258,40.03125 C28.9502258,40.2890625 28.7180668,40.5234375 28.462692,40.5234375 L26.1411021,40.5234375 C25.8625113,40.5234375 25.6535682,40.2890625 25.6535682,40.03125 L25.6535682,33 L18.9209575,33 L18.9209575,40.03125 C18.9209575,40.2890625 18.7120145,40.5234375 18.4334237,40.5234375 L16.0886179,40.5234375 C15.833243,40.5234375 15.601084,40.2890625 15.601084,40.03125 L15.601084,23.1796875 L15.6242999,23.1796875 Z" id="Shape" fill="#FFFFFF"></path>
                                <path d="M34.4523939,23.1796875 C34.4523939,22.921875 34.6845528,22.6875 34.9399277,22.6875 L37.2847335,22.6875 C37.5401084,22.6875 37.7722674,22.921875 37.7722674,23.1796875 L37.7722674,40.03125 C37.7722674,40.2890625 37.5401084,40.5234375 37.2847335,40.5234375 L34.9399277,40.5234375 C34.6845528,40.5234375 34.4523939,40.2890625 34.4523939,40.03125 L34.4523939,23.1796875 Z" id="Shape" fill="#FFFFFF"></path>
                                <path d="M43.4137308,23.1796875 C43.4137308,22.921875 43.6226739,22.6875 43.9012647,22.6875 L46.2228546,22.6875 C46.4782294,22.6875 46.7103884,22.921875 46.7103884,23.1796875 L46.7103884,37.453125 L53.1411924,37.453125 C53.4197832,37.453125 53.6287263,37.6875 53.6287263,37.9453125 L53.6287263,40.03125 C53.6287263,40.2890625 53.4197832,40.5234375 53.1411924,40.5234375 L43.8780488,40.5234375 C43.599458,40.5234375 43.3905149,40.2890625 43.3905149,40.03125 L43.3905149,23.1796875 L43.4137308,23.1796875 Z" id="Shape" fill="#FFFFFF"></path>
                                <path d="M57.2039747,23.1796875 C57.2039747,22.921875 57.4129178,22.6875 57.6915086,22.6875 L67.9529359,22.6875 C68.2315266,22.6875 68.4404697,22.921875 68.4404697,23.1796875 L68.4404697,25.265625 C68.4404697,25.5234375 68.2315266,25.7578125 67.9529359,25.7578125 L60.5006323,25.7578125 L60.5006323,29.9296875 L66.7224932,29.9296875 C66.9778681,29.9296875 67.2100271,30.1640625 67.2100271,30.421875 L67.2100271,32.53125 C67.2100271,32.8125 66.9778681,33.0234375 66.7224932,33.0234375 L60.5006323,33.0234375 L60.5006323,37.4765625 L67.9529359,37.4765625 C68.2315266,37.4765625 68.4404697,37.7109375 68.4404697,37.96875 L68.4404697,40.0546875 C68.4404697,40.3125 68.2315266,40.546875 67.9529359,40.546875 L57.6915086,40.546875 C57.4129178,40.546875 57.2039747,40.3125 57.2039747,40.0546875 L57.2039747,23.1796875 Z" id="Shape" fill="#FFFFFF"></path>
                                <path d="M70.7852755,34.8515625 L78.6322493,17.71875 C78.701897,17.5546875 78.8411924,17.4375 79.0501355,17.4375 L79.3055104,17.4375 C79.5608853,17.4375 79.6537489,17.5546875 79.7233966,17.71875 L87.4775068,34.8515625 C87.6400181,35.1796875 87.431075,35.5078125 87.0596206,35.5078125 L84.8773261,35.5078125 C84.5058717,35.5078125 84.3201445,35.34375 84.1344173,34.9921875 L82.9039747,32.25 L75.3588076,32.25 L74.128365,34.9921875 C74.0355014,35.25 73.8033424,35.5078125 73.4086721,35.5078125 L71.2263776,35.5078125 C70.8317073,35.5078125 70.6459801,35.1796875 70.7852755,34.8515625 Z M81.6735321,29.4375 L79.166215,23.8359375 L79.0965673,23.8359375 L76.6124661,29.4375 L81.6735321,29.4375 Z" id="Shape" fill="#FFFFFF"></path>
                                <path d="M89.8223126,38.015625 L90.7277326,36.4453125 C90.9366757,36.09375 91.3545619,36.09375 91.5867209,36.2578125 C91.7028004,36.328125 93.7457995,37.828125 95.3941283,37.828125 C96.6942186,37.828125 97.6925023,36.9609375 97.6925023,35.859375 C97.6925023,34.5703125 96.601355,33.6796875 94.4887082,32.8125 C92.1206865,31.8515625 89.7526649,30.328125 89.7526649,27.3046875 C89.7526649,25.03125 91.4242096,22.40625 95.4173442,22.40625 C97.9943089,22.40625 99.9444444,23.71875 100.455194,24.1171875 C100.710569,24.28125 100.780217,24.703125 100.617706,24.9609375 L99.6658537,26.4140625 C99.4569106,26.71875 99.0854562,26.9296875 98.7836495,26.71875 C98.5747064,26.6015625 96.6710027,25.3125 95.2780488,25.3125 C93.8386631,25.3125 93.0493225,26.2734375 93.0493225,27.09375 C93.0493225,28.2890625 93.9779584,29.109375 96.0209575,29.953125 C98.4586269,30.9375 101.290967,32.4140625 101.290967,35.6953125 C101.290967,38.3203125 99.0390244,40.734375 95.4869919,40.734375 C92.3064137,40.734375 90.4491418,39.234375 89.9383921,38.7421875 C89.729449,38.5546875 89.5901536,38.4375 89.8223126,38.015625 Z" id="Shape" fill="#FFFFFF"></path>
                                <g transform="translate(67.093948, 0.000000)" fill="#009EE0">
                                    <path d="M7.35943993,6.28125 L7.35943993,6.9609375 L0.99828365,10.5 C0.208943089,10.9453125 -0.0696476965,11.9296875 0.348238482,12.7265625 C0.78934056,13.5234375 1.76440831,13.8046875 2.55374887,13.3828125 L3.41273713,12.9140625 L2.22872629,14.109375 C1.60189702,14.7421875 1.60189702,15.796875 2.22872629,16.4296875 C2.85555556,17.0625 3.900271,17.0625 4.52710027,16.4296875 L5.80397471,15.140625 C6.12899729,16.921875 7.19692864,18.515625 8.75239386,19.4765625 C9.51851852,19.9453125 10.5168022,19.6875 10.9811201,18.9140625 C11.4454381,18.140625 11.1900632,17.1328125 10.4239386,16.6640625 C9.49530262,16.1015625 8.96133695,15.1171875 8.96133695,14.0390625 C8.96133695,12.328125 10.331075,10.9453125 12.0258356,10.9453125 C13.7205962,10.9453125 15.0903342,12.328125 15.0903342,14.0390625 C15.0903342,15.1171875 14.5331527,16.1015625 13.6277326,16.6640625 C12.8616079,17.1328125 12.6062331,18.140625 13.070551,18.9140625 C13.534869,19.6875 14.5331527,19.9453125 15.2992773,19.4765625 C17.1797651,18.328125 18.3405601,16.2421875 18.3405601,14.015625 C18.3405601,13.2890625 18.2012647,12.5859375 17.9923216,11.9296875 L17.9923216,6.28125 L7.35943993,6.28125 Z" id="Shape"></path>
                                    <polygon id="Rectangle-path" points="7.35943993 0.2109375 18.0155375 0.2109375 18.0155375 5.5546875 7.35943993 5.5546875"></polygon>
                                </g>
                            </g>
                            <g id="Group" transform="translate(110.507678, 28.125000)" fill="#009EE0" fill-rule="nonzero">
                                <polygon id="Shape" points="1.85727191 0.1171875 1.85727191 11.484375 8.56666667 11.484375 8.56666667 12.9140625 0.162511292 12.9140625 0.162511292 0.09375 1.85727191 0.09375"></polygon>
                                <path d="M16.6690154,12.3515625 C15.9725384,12.8671875 15.1135501,13.1484375 14.0688347,13.1484375 C13.3259259,13.1484375 12.6990967,13.03125 12.165131,12.796875 C11.6311653,12.5625 11.1668473,12.2109375 10.795393,11.7890625 C10.4239386,11.3671875 10.1453478,10.8515625 9.9596206,10.2421875 C9.77389341,9.65625 9.68102981,9 9.65781391,8.296875 C9.65781391,7.59375 9.77389341,6.9375 9.9828365,6.3515625 C10.1917796,5.765625 10.4935863,5.25 10.8882565,4.828125 C11.2829268,4.40625 11.7240289,4.0546875 12.2579946,3.8203125 C12.7919603,3.5859375 13.3723577,3.46875 13.999187,3.46875 C14.8117435,3.46875 15.4850045,3.6328125 16.0421861,3.984375 C16.5761518,4.3359375 17.0172538,4.7578125 17.3422764,5.296875 C17.667299,5.8125 17.899458,6.3984375 18.0155375,7.0078125 C18.131617,7.640625 18.2012647,8.2265625 18.1780488,8.7890625 L11.3061427,8.7890625 C11.2829268,9.1875 11.3525745,9.5859375 11.4454381,9.9375 C11.5615176,10.3125 11.7240289,10.6171875 11.9561879,10.8984375 C12.1883469,11.1796875 12.4901536,11.4140625 12.8616079,11.578125 C13.2330623,11.7421875 13.6509485,11.8359375 14.1616983,11.8359375 C14.8117435,11.8359375 15.3224932,11.6953125 15.7403794,11.390625 C16.1582656,11.0859375 16.4136405,10.640625 16.5529359,10.03125 L18.0387534,10.03125 C17.7833785,11.0390625 17.3422764,11.8125 16.6690154,12.3515625 Z M16.297561,6.375 C16.1582656,6.046875 15.9725384,5.765625 15.7403794,5.53125 C15.5082204,5.296875 15.2296296,5.109375 14.9278229,4.96875 C14.6028004,4.828125 14.2777778,4.7578125 13.8831075,4.7578125 C13.4884372,4.7578125 13.1401987,4.828125 12.8151762,4.96875 C12.4901536,5.109375 12.2347787,5.296875 12.0026197,5.53125 C11.7704607,5.765625 11.6079494,6.046875 11.468654,6.375 C11.3293586,6.703125 11.2597109,7.03125 11.236495,7.3828125 L16.5065041,7.3828125 C16.5065041,7.0546875 16.4368564,6.703125 16.297561,6.375 Z" id="Shape"></path>
                                <path d="M28.1841012,12.890625 C27.9287263,13.0546875 27.5572719,13.125 27.0929539,13.125 C26.6982836,13.125 26.396477,13.0078125 26.164318,12.796875 C25.932159,12.5859375 25.8160795,12.2109375 25.8160795,11.71875 C25.3981933,12.2109375 24.9106594,12.5859375 24.3766938,12.796875 C23.8195122,13.0078125 23.2391147,13.125 22.5890696,13.125 C22.1711834,13.125 21.7765131,13.078125 21.4050587,12.984375 C21.0336043,12.890625 20.7085818,12.75 20.429991,12.5390625 C20.1514002,12.328125 19.9424571,12.0703125 19.7799458,11.7421875 C19.6174345,11.4140625 19.5477868,11.015625 19.5477868,10.546875 C19.5477868,10.03125 19.6406504,9.5859375 19.8031617,9.2578125 C19.9888889,8.9296875 20.2210479,8.6484375 20.4996387,8.4375 C20.7782294,8.2265625 21.1264679,8.0625 21.4979223,7.96875 C21.8693767,7.8515625 22.264047,7.78125 22.6355014,7.7109375 C23.0533875,7.6171875 23.4480578,7.5703125 23.8195122,7.5234375 C24.1909666,7.4765625 24.5159892,7.4296875 24.7945799,7.3359375 C25.0731707,7.265625 25.3053297,7.1484375 25.467841,6.984375 C25.6303523,6.84375 25.7232159,6.609375 25.7232159,6.328125 C25.7232159,6 25.6535682,5.71875 25.5374887,5.53125 C25.4214092,5.3203125 25.2588979,5.1796875 25.0499548,5.0625 C24.8642276,4.9453125 24.6320687,4.875 24.3999097,4.8515625 C24.1677507,4.8046875 23.9123758,4.8046875 23.6802168,4.8046875 C23.0301716,4.8046875 22.496206,4.921875 22.0783198,5.1796875 C21.6604336,5.4140625 21.4282746,5.8828125 21.3818428,6.5625 L19.8728094,6.5625 C19.8960253,6 20.0121048,5.5078125 20.2210479,5.109375 C20.429991,4.7109375 20.7085818,4.40625 21.0800361,4.1484375 C21.4282746,3.9140625 21.8461608,3.7265625 22.2872629,3.609375 C22.7515808,3.4921875 23.2391147,3.4453125 23.7498645,3.4453125 C24.1677507,3.4453125 24.5856369,3.46875 24.9803071,3.5390625 C25.3981933,3.609375 25.7696477,3.7265625 26.0946703,3.9140625 C26.4196929,4.1015625 26.6982836,4.359375 26.8840108,4.6875 C27.0929539,5.015625 27.1858175,5.4609375 27.1858175,6 L27.1858175,10.7578125 C27.1858175,11.109375 27.2090334,11.3671875 27.2554652,11.5546875 C27.301897,11.71875 27.4411924,11.8125 27.6733514,11.8125 C27.8126468,11.8125 27.9519422,11.7890625 28.1376694,11.7421875 L28.1376694,12.890625 L28.1841012,12.890625 Z M25.7464318,8.15625 C25.5607046,8.296875 25.3053297,8.4140625 25.003523,8.4609375 C24.7017164,8.53125 24.3766938,8.578125 24.0284553,8.625 C23.6802168,8.671875 23.3551942,8.71875 23.0069557,8.765625 C22.6587173,8.8125 22.3569106,8.90625 22.0783198,9.0234375 C21.799729,9.140625 21.5907859,9.3046875 21.4050587,9.5390625 C21.2425474,9.75 21.1496838,10.0546875 21.1496838,10.4296875 C21.1496838,10.6875 21.1961156,10.8984375 21.3121951,11.0625 C21.4050587,11.2265625 21.5443541,11.3671875 21.7068654,11.484375 C21.8693767,11.6015625 22.0551039,11.671875 22.264047,11.71875 C22.4729901,11.765625 22.7051491,11.7890625 22.937308,11.7890625 C23.4248419,11.7890625 23.865944,11.71875 24.2141825,11.578125 C24.562421,11.4375 24.8642276,11.2734375 25.0731707,11.0625 C25.2821138,10.8515625 25.467841,10.6171875 25.5607046,10.3828125 C25.6767841,10.1484375 25.7232159,9.9140625 25.7232159,9.703125 L25.7232159,8.15625 L25.7464318,8.15625 Z" id="Shape"></path>
                                <path d="M31.3182475,3.65625 L31.3182475,5.6015625 L31.3646793,5.6015625 C31.7361337,4.8515625 32.1772358,4.2890625 32.7112014,3.9375 C33.2451671,3.5859375 33.9184282,3.421875 34.7309846,3.4453125 L34.7309846,5.0625 C34.1273713,5.0625 33.6166215,5.15625 33.1755194,5.3203125 C32.7576332,5.484375 32.4093948,5.7421875 32.1540199,6.046875 C31.898645,6.375 31.7129178,6.75 31.5736224,7.21875 C31.4575429,7.6875 31.3878952,8.203125 31.3878952,8.8125 L31.3878952,12.9375 L29.8788618,12.9375 L29.8788618,3.65625 L31.3182475,3.65625 Z" id="Shape"></path>
                                <path d="M37.9579946,3.65625 L37.9579946,5.1328125 L38.0044264,5.1328125 C38.6312556,4.0078125 39.6295393,3.4453125 40.9992773,3.4453125 C41.6028907,3.4453125 42.1136405,3.5390625 42.5083107,3.703125 C42.902981,3.8671875 43.2280036,4.1015625 43.4833785,4.40625 C43.7387534,4.7109375 43.9012647,5.0625 44.0173442,5.484375 C44.1102078,5.90625 44.1798555,6.3515625 44.1798555,6.8671875 L44.1798555,12.9609375 L42.670822,12.9609375 L42.670822,6.6796875 C42.670822,6.1171875 42.5083107,5.6484375 42.1832882,5.3203125 C41.8582656,4.9921875 41.3939476,4.828125 40.8135501,4.828125 C40.3492322,4.828125 39.9545619,4.8984375 39.6063234,5.0390625 C39.2580849,5.1796875 38.9794941,5.390625 38.770551,5.6484375 C38.5383921,5.90625 38.3758808,6.2109375 38.2598013,6.5625 C38.1437218,6.9140625 38.09729,7.3125 38.09729,7.7109375 L38.09729,12.9609375 L36.5882565,12.9609375 L36.5882565,3.6796875 L37.9579946,3.6796875 L37.9579946,3.65625 Z" id="Shape"></path>
                                <path d="M49.0784101,10.9453125 L49.0784101,12.75 C49.0784101,13.4296875 48.9158988,14.015625 48.6140921,14.5078125 C48.3122855,15 47.8015357,15.3515625 47.1282746,15.5390625 L47.1282746,14.6484375 C47.3372177,14.578125 47.499729,14.4609375 47.6390244,14.34375 C47.7783198,14.203125 47.8943993,14.0625 47.964047,13.8984375 C48.0569106,13.734375 48.1033424,13.5703125 48.1265583,13.40625 C48.1497742,13.2421875 48.1729901,13.078125 48.1497742,12.9375 L47.1282746,12.9375 L47.1282746,10.9453125 L49.0784101,10.9453125 Z" id="Shape"></path>
                                <path d="M55.5092141,10.8515625 C55.6485095,11.0859375 55.8342367,11.2734375 56.0663957,11.4140625 C56.2985547,11.5546875 56.5539295,11.6484375 56.8557362,11.71875 C57.1575429,11.7890625 57.4361337,11.8125 57.7611563,11.8125 C57.9933153,11.8125 58.2486902,11.7890625 58.504065,11.765625 C58.7594399,11.71875 59.0148148,11.671875 59.2237579,11.578125 C59.432701,11.484375 59.6184282,11.34375 59.7577236,11.15625 C59.897019,10.96875 59.9666667,10.734375 59.9666667,10.453125 C59.9666667,10.0546875 59.8273713,9.75 59.5255646,9.5625 C59.2237579,9.375 58.8523035,9.1875 58.4112014,9.0703125 C57.9700994,8.953125 57.4825655,8.8359375 56.9718157,8.71875 C56.4610659,8.625 55.9735321,8.484375 55.53243,8.296875 C55.0913279,8.109375 54.7198735,7.8515625 54.4180668,7.5234375 C54.1162602,7.1953125 53.9769648,6.7265625 53.9769648,6.1171875 C53.9769648,5.6484375 54.0698284,5.25 54.2787715,4.921875 C54.4877145,4.59375 54.7430894,4.3125 55.068112,4.1015625 C55.3931346,3.890625 55.764589,3.7265625 56.1592593,3.6328125 C56.5771454,3.5390625 56.9718157,3.46875 57.366486,3.46875 C57.8772358,3.46875 58.3647696,3.515625 58.8058717,3.609375 C59.2469738,3.703125 59.6416441,3.84375 59.9666667,4.078125 C60.3149051,4.2890625 60.57028,4.59375 60.7792231,4.96875 C60.9881662,5.34375 61.1042457,5.8125 61.1274616,6.375 L59.6184282,6.375 C59.5952123,6.0703125 59.5255646,5.8359375 59.3862692,5.625 C59.2469738,5.4375 59.0844625,5.2734375 58.8987353,5.15625 C58.6897922,5.0390625 58.4808491,4.9453125 58.2254743,4.8984375 C57.9933153,4.8515625 57.7379404,4.828125 57.4825655,4.828125 C57.2504065,4.828125 57.0182475,4.8515625 56.8093044,4.875 C56.5771454,4.921875 56.3682023,4.96875 56.1824752,5.0625 C55.996748,5.15625 55.8342367,5.2734375 55.7181572,5.4140625 C55.6020777,5.5546875 55.53243,5.765625 55.53243,6 C55.53243,6.2578125 55.6252936,6.4921875 55.8110208,6.65625 C55.996748,6.8203125 56.228907,6.984375 56.5074977,7.078125 C56.7860885,7.1953125 57.1111111,7.2890625 57.4593496,7.359375 C57.8075881,7.4296875 58.1790425,7.5234375 58.5272809,7.59375 C58.8987353,7.6875 59.2701897,7.78125 59.6416441,7.8984375 C60.0130985,8.015625 60.3149051,8.1796875 60.5934959,8.3671875 C60.8720867,8.5546875 61.1042457,8.8125 61.266757,9.1171875 C61.4292683,9.421875 61.5221319,9.796875 61.5221319,10.21875 C61.5221319,10.78125 61.4060524,11.25 61.1738934,11.625 C60.9417344,12 60.6399277,12.3046875 60.2684734,12.515625 C59.897019,12.75 59.4791328,12.890625 59.0148148,12.984375 C58.5504968,13.078125 58.0861789,13.125 57.6218609,13.125 C57.1111111,13.125 56.6235772,13.078125 56.1592593,12.9609375 C55.6949413,12.84375 55.2770551,12.6796875 54.9288166,12.421875 C54.5805781,12.1875 54.2787715,11.859375 54.0698284,11.4609375 C53.8608853,11.0625 53.7448058,10.5703125 53.7215899,10.0078125 L55.2306233,10.0078125 C55.2770551,10.3359375 55.3699187,10.640625 55.5092141,10.8515625 Z" id="Shape"></path>
                                <path d="M65.0973803,0.1171875 L65.0973803,5.015625 L65.1438121,5.015625 C65.2598916,4.734375 65.4224029,4.4765625 65.631346,4.2890625 C65.8402891,4.1015625 66.095664,3.9375 66.3510388,3.796875 C66.6064137,3.65625 66.8850045,3.5859375 67.1868112,3.515625 C67.465402,3.4453125 67.7672087,3.421875 68.0225836,3.421875 C68.6261969,3.421875 69.1369467,3.515625 69.531617,3.6796875 C69.9262873,3.84375 70.2513098,4.078125 70.5066847,4.3828125 C70.7620596,4.6875 70.9245709,5.0390625 71.0406504,5.4609375 C71.133514,5.8828125 71.2031617,6.328125 71.2031617,6.84375 L71.2031617,12.9375 L69.6941283,12.9375 L69.6941283,6.65625 C69.6941283,6.09375 69.531617,5.625 69.2065944,5.296875 C68.8815718,4.96875 68.4172538,4.8046875 67.8368564,4.8046875 C67.3725384,4.8046875 66.9778681,4.875 66.6296296,5.015625 C66.2813911,5.15625 66.0028004,5.3671875 65.7938573,5.625 C65.5616983,5.8828125 65.399187,6.1875 65.2831075,6.5390625 C65.167028,6.890625 65.1205962,7.2890625 65.1205962,7.6875 L65.1205962,12.9375 L63.6115628,12.9375 L63.6115628,0.1171875 L65.0973803,0.1171875 Z" id="Shape"></path>
                                <path d="M81.9753388,12.890625 C81.7199639,13.0546875 81.3485095,13.125 80.8841915,13.125 C80.4895212,13.125 80.1877145,13.0078125 79.9555556,12.796875 C79.7233966,12.5859375 79.6073171,12.2109375 79.6073171,11.71875 C79.1894309,12.2109375 78.701897,12.5859375 78.1679313,12.796875 C77.6107498,13.0078125 77.0303523,13.125 76.3803071,13.125 C75.962421,13.125 75.5677507,13.078125 75.1962963,12.984375 C74.8248419,12.890625 74.4998193,12.75 74.2212285,12.5390625 C73.9426378,12.328125 73.7336947,12.0703125 73.5711834,11.7421875 C73.4086721,11.4140625 73.3390244,11.015625 73.3390244,10.546875 C73.3390244,10.03125 73.431888,9.5859375 73.5943993,9.2578125 C73.7569106,8.9296875 74.0122855,8.6484375 74.2908762,8.4375 C74.569467,8.2265625 74.9177055,8.0625 75.2891599,7.96875 C75.6606143,7.8515625 76.0552846,7.78125 76.4267389,7.7109375 C76.8446251,7.6171875 77.2392954,7.5703125 77.6107498,7.5234375 C77.9822042,7.4765625 78.3072267,7.4296875 78.5858175,7.3359375 C78.8644083,7.265625 79.0965673,7.1484375 79.2590786,6.984375 C79.4215899,6.84375 79.5144535,6.609375 79.5144535,6.328125 C79.5144535,6 79.4448058,5.71875 79.3287263,5.53125 C79.2126468,5.3203125 79.0501355,5.1796875 78.8411924,5.0625 C78.6554652,4.9453125 78.4233062,4.875 78.1911472,4.8515625 C77.9589883,4.8046875 77.7036134,4.8046875 77.4714544,4.8046875 C76.8214092,4.8046875 76.2874435,4.921875 75.8695574,5.1796875 C75.4516712,5.4140625 75.2195122,5.8828125 75.1730804,6.5625 L73.664047,6.5625 C73.6872629,6 73.8033424,5.5078125 74.0122855,5.109375 C74.2212285,4.7109375 74.4998193,4.40625 74.8712737,4.1484375 C75.2195122,3.9140625 75.6373984,3.7265625 76.0785005,3.609375 C76.5428184,3.4921875 77.0303523,3.4453125 77.5411021,3.4453125 C77.9589883,3.4453125 78.3768744,3.46875 78.7715447,3.5390625 C79.1894309,3.609375 79.5608853,3.7265625 79.8859079,3.9140625 C80.2109304,4.1015625 80.4895212,4.359375 80.6752484,4.6875 C80.8841915,5.015625 80.9770551,5.4609375 80.9770551,6 L80.9770551,10.7578125 C80.9770551,11.109375 81.000271,11.3671875 81.0467028,11.5546875 C81.0931346,11.71875 81.23243,11.8125 81.464589,11.8125 C81.6038844,11.8125 81.7431798,11.7890625 81.928907,11.7421875 L81.928907,12.890625 L81.9753388,12.890625 Z M79.5144535,8.15625 C79.3287263,8.296875 79.0733514,8.4140625 78.7715447,8.4609375 C78.469738,8.53125 78.1447154,8.578125 77.796477,8.625 C77.4482385,8.671875 77.1232159,8.71875 76.7749774,8.765625 C76.4267389,8.8125 76.1249322,8.90625 75.8463415,9.0234375 C75.5677507,9.140625 75.3588076,9.3046875 75.1730804,9.5390625 C75.0105691,9.75 74.9177055,10.0546875 74.9177055,10.4296875 C74.9177055,10.6875 74.9641373,10.8984375 75.0802168,11.0625 C75.1730804,11.2265625 75.3123758,11.3671875 75.4748871,11.484375 C75.6373984,11.6015625 75.8231256,11.671875 76.0320687,11.71875 C76.2410117,11.765625 76.4731707,11.7890625 76.7053297,11.7890625 C77.1928636,11.7890625 77.6339657,11.71875 77.9822042,11.578125 C78.3304426,11.4375 78.6322493,11.2734375 78.8411924,11.0625 C79.0501355,10.8515625 79.2358627,10.6171875 79.3287263,10.3828125 C79.4448058,10.1484375 79.4912376,9.9140625 79.4912376,9.703125 L79.4912376,8.15625 L79.5144535,8.15625 Z" id="Shape"></path>
                                <path d="M85.0862692,3.65625 L85.0862692,5.6015625 L85.132701,5.6015625 C85.5041554,4.8515625 85.9452575,4.2890625 86.4792231,3.9375 C87.0131888,3.5859375 87.6864499,3.421875 88.4990063,3.4453125 L88.4990063,5.0625 C87.895393,5.0625 87.3846432,5.15625 86.9435411,5.3203125 C86.5256549,5.484375 86.1774164,5.7421875 85.9220416,6.046875 C85.6666667,6.375 85.4809395,6.75 85.3416441,7.21875 C85.2255646,7.6875 85.1559169,8.203125 85.1559169,8.8125 L85.1559169,12.9375 L83.6468835,12.9375 L83.6468835,3.65625 L85.0862692,3.65625 Z" id="Shape"></path>
                                <path d="M96.1834688,12.3515625 C95.4869919,12.8671875 94.6280036,13.1484375 93.5832882,13.1484375 C92.8403794,13.1484375 92.2135501,13.03125 91.6795845,12.796875 C91.1456188,12.5625 90.6813008,12.2109375 90.3098464,11.7890625 C89.9383921,11.3671875 89.6598013,10.8515625 89.4740741,10.2421875 C89.2883469,9.65625 89.1954833,9 89.1722674,8.296875 C89.1722674,7.59375 89.2883469,6.9375 89.49729,6.3515625 C89.7062331,5.765625 90.0080397,5.25 90.40271,4.828125 C90.7973803,4.40625 91.2384824,4.0546875 91.7724481,3.8203125 C92.3064137,3.5859375 92.8868112,3.46875 93.5136405,3.46875 C94.3261969,3.46875 94.999458,3.6328125 95.5566396,3.984375 C96.0906052,4.3359375 96.5317073,4.7578125 96.8567299,5.296875 C97.1817525,5.8125 97.4139115,6.3984375 97.529991,7.0078125 C97.6460705,7.640625 97.7157182,8.2265625 97.6925023,8.7890625 L90.7741644,8.7890625 C90.7509485,9.1875 90.8205962,9.5859375 90.9134598,9.9375 C91.0295393,10.3125 91.1920506,10.6171875 91.4242096,10.8984375 C91.6563686,11.1796875 91.9581752,11.4140625 92.3296296,11.578125 C92.701084,11.7421875 93.1189702,11.8359375 93.62972,11.8359375 C94.2797651,11.8359375 94.7905149,11.6953125 95.2084011,11.390625 C95.6262873,11.0859375 95.8816621,10.640625 96.0209575,10.03125 L97.5067751,10.03125 C97.3210479,11.0390625 96.8799458,11.8125 96.1834688,12.3515625 Z M95.8120145,6.375 C95.6727191,6.046875 95.4869919,5.765625 95.2548329,5.53125 C95.0226739,5.296875 94.7440831,5.109375 94.4422764,4.96875 C94.1172538,4.828125 93.7922313,4.7578125 93.397561,4.7578125 C93.0028907,4.7578125 92.6546522,4.828125 92.3296296,4.96875 C92.004607,5.109375 91.7492322,5.296875 91.5170732,5.53125 C91.2849142,5.765625 91.1224029,6.046875 90.9831075,6.375 C90.8438121,6.703125 90.7741644,7.03125 90.7509485,7.3828125 L96.0209575,7.3828125 C96.0441734,7.0546875 95.9513098,6.703125 95.8120145,6.375 Z" id="Shape"></path>
                                <path d="M101.89458,10.9453125 L101.89458,12.75 C101.89458,13.4296875 101.732069,14.015625 101.430262,14.5078125 C101.128455,15 100.617706,15.3515625 99.9444444,15.5390625 L99.9444444,14.6484375 C100.153388,14.578125 100.315899,14.4609375 100.455194,14.34375 C100.59449,14.203125 100.710569,14.0625 100.780217,13.8984375 C100.87308,13.734375 100.919512,13.5703125 100.942728,13.40625 C100.965944,13.2421875 100.98916,13.078125 100.965944,12.9375 L99.9212285,12.9375 L99.9212285,10.9453125 L101.89458,10.9453125 Z" id="Shape"></path>
                                <path d="M114.036495,15.5625 C113.340018,16.3125 112.272087,16.6875 110.809485,16.6875 C110.391599,16.6875 109.950497,16.640625 109.509395,16.546875 C109.068293,16.453125 108.673622,16.2890625 108.302168,16.078125 C107.930714,15.8671875 107.652123,15.5859375 107.396748,15.234375 C107.164589,14.8828125 107.025294,14.4609375 107.002078,13.96875 L108.511111,13.96875 C108.534327,14.25 108.603975,14.484375 108.766486,14.671875 C108.928997,14.859375 109.114724,15.0234375 109.346883,15.140625 C109.579042,15.2578125 109.834417,15.3515625 110.113008,15.3984375 C110.391599,15.4453125 110.646974,15.46875 110.902349,15.46875 C111.389883,15.46875 111.830985,15.375 112.156007,15.2109375 C112.504246,15.046875 112.782836,14.7890625 113.014995,14.484375 C113.247154,14.1796875 113.409666,13.8046875 113.502529,13.3828125 C113.595393,12.9609375 113.665041,12.46875 113.665041,11.9765625 L113.665041,11.3671875 L113.618609,11.3671875 C113.363234,11.9296875 112.968564,12.3515625 112.434598,12.6328125 C111.900632,12.890625 111.343451,13.03125 110.763053,13.03125 C110.066576,13.03125 109.486179,12.9140625 108.975429,12.65625 C108.464679,12.3984375 108.046793,12.0703125 107.698555,11.6484375 C107.350316,11.2265625 107.094941,10.734375 106.93243,10.1484375 C106.769919,9.5859375 106.677055,8.9765625 106.677055,8.34375 C106.677055,7.8046875 106.746703,7.21875 106.885998,6.65625 C107.025294,6.0703125 107.257453,5.5546875 107.605691,5.0859375 C107.930714,4.6171875 108.371816,4.21875 108.928997,3.9140625 C109.462963,3.609375 110.136224,3.4453125 110.925565,3.4453125 C111.505962,3.4453125 112.039928,3.5625 112.527462,3.8203125 C113.014995,4.078125 113.38645,4.453125 113.665041,4.96875 L113.688257,4.96875 L113.688257,3.6328125 L115.104426,3.6328125 L115.104426,12.1171875 C115.08121,13.6640625 114.732972,14.7890625 114.036495,15.5625 Z M112.109575,11.390625 C112.457814,11.1796875 112.736405,10.8984375 112.945348,10.5703125 C113.154291,10.21875 113.316802,9.84375 113.409666,9.421875 C113.502529,9 113.572177,8.5546875 113.572177,8.1328125 C113.572177,7.734375 113.525745,7.3359375 113.432882,6.9375 C113.340018,6.5390625 113.177507,6.1875 112.968564,5.859375 C112.759621,5.53125 112.48103,5.296875 112.156007,5.0859375 C111.830985,4.8984375 111.413098,4.8046875 110.94878,4.8046875 C110.461247,4.8046875 110.04336,4.8984375 109.695122,5.0859375 C109.346883,5.2734375 109.068293,5.5078125 108.85935,5.8359375 C108.650407,6.140625 108.487895,6.515625 108.371816,6.9140625 C108.278952,7.3125 108.209304,7.734375 108.209304,8.1796875 C108.209304,8.6015625 108.255736,9.0234375 108.325384,9.4453125 C108.418248,9.8671875 108.557543,10.2421875 108.74327,10.59375 C108.952213,10.9453125 109.207588,11.203125 109.532611,11.4140625 C109.857633,11.625 110.275519,11.71875 110.786269,11.71875 C111.343451,11.6953125 111.761337,11.6015625 112.109575,11.390625 Z" id="Shape"></path>
                                <path d="M119.074345,3.65625 L119.074345,5.6015625 L119.120777,5.6015625 C119.492231,4.8515625 119.933333,4.2890625 120.467299,3.9375 C121.001265,3.5859375 121.674526,3.421875 122.487082,3.4453125 L122.487082,5.0625 C121.883469,5.0625 121.372719,5.15625 120.931617,5.3203125 C120.513731,5.484375 120.165492,5.7421875 119.910117,6.046875 C119.654743,6.375 119.469015,6.75 119.32972,7.21875 C119.21364,7.6875 119.143993,8.203125 119.143993,8.8125 L119.143993,12.9375 L117.634959,12.9375 L117.634959,3.65625 L119.074345,3.65625 Z" id="Shape"></path>
                                <path d="M123.438934,6.3984375 C123.624661,5.8125 123.903252,5.296875 124.297922,4.8515625 C124.669377,4.40625 125.133695,4.078125 125.690876,3.8203125 C126.248058,3.5625 126.898103,3.4453125 127.617796,3.4453125 C128.360705,3.4453125 128.987534,3.5625 129.544715,3.8203125 C130.101897,4.078125 130.566215,4.40625 130.937669,4.8515625 C131.309124,5.296875 131.61093,5.8125 131.796658,6.3984375 C131.982385,6.984375 132.075248,7.6171875 132.075248,8.3203125 C132.075248,9.0234375 131.982385,9.6328125 131.796658,10.21875 C131.61093,10.8046875 131.33234,11.3203125 130.937669,11.7421875 C130.566215,12.1875 130.101897,12.515625 129.544715,12.7734375 C128.987534,13.0078125 128.360705,13.1484375 127.617796,13.1484375 C126.898103,13.1484375 126.248058,13.03125 125.690876,12.7734375 C125.133695,12.5390625 124.669377,12.1875 124.297922,11.7421875 C123.926468,11.296875 123.624661,10.8046875 123.438934,10.21875 C123.253207,9.6328125 123.160343,9 123.160343,8.3203125 C123.160343,7.640625 123.253207,6.984375 123.438934,6.3984375 Z M124.971183,9.796875 C125.110479,10.2421875 125.319422,10.59375 125.574797,10.8984375 C125.830172,11.203125 126.131978,11.4140625 126.480217,11.578125 C126.828455,11.7421875 127.19991,11.8125 127.59458,11.8125 C127.98925,11.8125 128.360705,11.7421875 128.708943,11.578125 C129.057182,11.4140625 129.358988,11.203125 129.614363,10.8984375 C129.869738,10.6171875 130.078681,10.2421875 130.217977,9.796875 C130.357272,9.3515625 130.450136,8.859375 130.450136,8.296875 C130.450136,7.734375 130.380488,7.2421875 130.217977,6.796875 C130.078681,6.3515625 129.869738,6 129.614363,5.6953125 C129.358988,5.390625 129.057182,5.1796875 128.708943,5.015625 C128.360705,4.8515625 127.98925,4.78125 127.59458,4.78125 C127.19991,4.78125 126.828455,4.8515625 126.480217,5.015625 C126.131978,5.1796875 125.830172,5.390625 125.574797,5.6953125 C125.319422,6 125.110479,6.3515625 124.971183,6.796875 C124.831888,7.2421875 124.739024,7.734375 124.739024,8.296875 C124.76224,8.859375 124.831888,9.375 124.971183,9.796875 Z" id="Shape"></path>
                                <polygon id="Shape" points="141.709846 12.9375 139.852575 5.5546875 139.806143 5.5546875 137.948871 12.9375 136.323758 12.9375 133.375339 3.65625 135.046883 3.65625 137.136314 11.25 137.182746 11.25 139.040018 3.65625 140.688347 3.65625 142.615266 11.25 142.661698 11.25 144.727913 3.65625 146.283379 3.65625 143.358175 12.9375"></polygon>
                            </g>
                        </g>
                    </g>
                </g>
            </g>
        </g>
    </g>
</svg>