<?xml version="1.0" encoding="UTF-8"?>
<svg width="171px" height="233px" viewBox="0 0 171 233" version="1.1" xmlns="http://www.w3.org/2000/svg" xmlns:xlink="http://www.w3.org/1999/xlink">
    <!-- Generator: Sketch 52.2 (67145) - http://www.bohemiancoding.com/sketch -->
    <title>PICTOS / Loupe</title>
    <desc>Created with Sketch.</desc>
    <g id="Tools-Kit" stroke="none" stroke-width="1" fill="none" fill-rule="evenodd">
        <g id="10_Pictos" transform="translate(0.000000, -277.000000)">
            <g id="PICTOS-/-Loupe" transform="translate(5, 280) scale(5.0)" fill="#0B1A4C">
                <path d="M21.0396479,21.6599535 C16.8227397,26.0051691 9.983064,26.0051691 5.76615577,21.6599535 C1.54924755,17.3147378 1.54924755,10.2669676 5.76615577,5.92175194 C9.983064,1.57653631 16.8227397,1.57653631 21.0396479,5.92175194 C25.2565561,10.2669676 25.2565561,17.3147378 21.0396479,21.6599535 M31.5819589,30.244427 L23.8681084,22.295858 C28.0336136,16.8908278 27.6736307,8.99515858 22.8395626,4.01403844 C17.5941086,-1.33801281 9.16029212,-1.33801281 3.91483811,4.01403844 C-1.3306159,9.36608969 -1.2792129,18.1095789 3.91483811,23.514609 C8.74882524,28.4957292 16.4113538,28.8667393 21.6568078,24.5744235 L29.3706584,32.5230716 C29.9878182,33.1589761 30.96488,33.1589761 31.5305559,32.5230716 C32.1476348,31.8871671 32.1476348,30.8803315 31.5819589,30.244427" id="Fill-1" style="fill:white"></path>
            </g>
        </g>
    </g>
</svg>