<?xml version="1.0" encoding="UTF-8"?>
<svg width="224px" height="224px" viewBox="0 0 236 224" version="1.1" xmlns="http://www.w3.org/2000/svg" xmlns:xlink="http://www.w3.org/1999/xlink">
    <!-- Generator: Sketch 52.2 (67145) - http://www.bohemiancoding.com/sketch -->
    <title>PICTOS / Mail</title>
    <desc>Created with Sketch.</desc>
    <defs>
        <rect id="path-1" x="0" y="0" width="18" height="24"></rect>
    </defs>
    <g id="Tools-Kit" stroke="none" stroke-width="1" fill="none" fill-rule="evenodd">
        <g id="10_Pictos" transform="translate(-177.000000, -286.000000)">
            <g id="PICTOS-/-Mail" transform="translate(185, 320) scale(6.0)">
                <path d="M2.90209091,1.95399252e-14 C1.32995455,1.95399252e-14 -3.90798505e-14,1.29641379 -3.90798505e-14,2.89655172 L-3.90798505e-14,21.1034483 C-3.90798505e-14,22.7031724 1.32995455,24 2.90209091,24 L33.0979091,24 C34.6696364,24 36,22.7031724 36,21.1034483 L36,2.89655172 C36,1.29682759 34.6696364,1.95399252e-14 33.0979091,1.95399252e-14 L2.90209091,1.95399252e-14 Z" id="Path" fill="#009EE0"></path>
                <g id="Group-4" stroke-width="1" transform="translate(18.000000, 0.000000)">
                    <mask id="mask-2" fill="white">
                        <use xlink:href="#path-1"></use>
                    </mask>
                    <use id="Rectangle" fill="#FFFFFF" xlink:href="#path-1"></use>
                    <path d="M-15.0979091,0 C-16.6700455,0 -18,1.29641379 -18,2.89655172 L-18,21.1034483 C-18,22.7031724 -16.6700455,24 -15.0979091,24 L15.0979091,24 C16.6696364,24 18,22.7031724 18,21.1034483 L18,2.89655172 C18,1.29682759 16.6696364,0 15.0979091,0 L-15.0979091,0 Z" id="Path" fill="#0C1C49" mask="url(#mask-2)"></path>
                </g>
                <g stroke-width="1" transform="translate(2.000000, 2.000000)" fill="#E6EDFA" id="Path">
                    <path d="M11.5,12.030069 L13.9287727,14.2281379 C15.1208636,15.3056552 16.8791364,15.3056552 18.0708182,14.2281379 L20.5,12.030069 L29.4488636,19.5172414 L2.55113636,19.5172414 L11.5,12.030069 Z"></path>
                    <polygon points="31.5454545 2.04731034 31.5454545 18.0561379 22.3535909 10.362069"></polygon>
                    <polygon points="0.454545455 2.04731034 9.64640909 10.362069 0.454545455 18.0561379"></polygon>
                    <path d="M2.39772727,0.482758621 L29.6022727,0.482758621 L16.4348636,12.3793103 C16.2552727,12.5411034 15.7447273,12.5411034 15.5655455,12.3793103 L2.39772727,0.482758621 Z"></path>
                </g>
            </g>
        </g>
    </g>
</svg>