<?xml version="1.0" encoding="UTF-8"?>
<svg width="229px" height="229px" viewBox="0 0 229 229" version="1.1" xmlns="http://www.w3.org/2000/svg" xmlns:xlink="http://www.w3.org/1999/xlink">
    <!-- Generator: Sketch 52.2 (67145) - http://www.bohemiancoding.com/sketch -->
    <title>PICTOS / Recommander</title>
    <desc>Created with Sketch.</desc>
    <g id="Tools-Kit" stroke="none" stroke-width="1" fill="none" fill-rule="evenodd">
        <g id="10_Pictos" transform="translate(-472.000000, -183.000000)">
            <g id="PICTOS-/-Recommander" transform="translate(500, 210) scale(6.0)">
                <circle id="Oval" stroke="#009EE0" stroke-width="1" cx="13.5" cy="13.5" r="13.5"></circle>
                <path d="M16.9687591,15.9515075 C16.298467,15.9515075 15.7093917,16.2769798 15.343747,16.7652853 L10.0015814,14.0391272 C10.0421655,13.8763911 10.0624818,13.6932583 10.0624818,13.510174 C10.0624818,13.3881341 10.0624818,13.2863936 10.0421655,13.1643051 L15.4656447,10.3974994 C15.8312894,10.8044126 16.3796837,11.0688406 16.9687591,11.0688406 C18.085961,11.0688406 19,10.1533709 19,9.03442028 C19,7.9154697 18.085961,7 16.9687591,7 C15.8515572,7 14.9375182,7.9154697 14.9375182,9.03442028 C14.9375182,9.11581263 14.9375182,9.19715642 14.9578345,9.27854877 L9.47345493,12.0860507 C9.10781023,11.7198823 8.6,11.4757538 8.03124091,11.4757538 C6.91403901,11.4757538 6,12.3912235 6,13.510174 C6,14.6291246 6.91403901,15.5445943 8.03124091,15.5445943 C8.53905114,15.5445943 8.98596099,15.3615101 9.33124091,15.0563373 L14.9375182,17.9045355 L14.9375182,17.9655797 C14.9375182,19.0845303 15.8515572,20 16.9687591,20 C18.085961,20 19,19.0845303 19,17.9655797 C19,16.8670258 18.085961,15.9515075 16.9687591,15.9515075" id="Fill-1" fill="#0C1C49" fill-rule="evenodd"></path>
            </g>
        </g>
    </g>
</svg>