<?xml version="1.0" encoding="UTF-8"?>
<svg width="205px" height="205px" viewBox="0 0 252 279" version="1.1" xmlns="http://www.w3.org/2000/svg" xmlns:xlink="http://www.w3.org/1999/xlink">
    <!-- Generator: Sketch 52.2 (67145) - http://www.bohemiancoding.com/sketch -->
    <title>PICTOS / Rythme</title>
    <desc>Created with Sketch.</desc>
    <g id="Tools-Kit" stroke="none" stroke-width="1" fill="none" fill-rule="evenodd">
        <g id="11_Pictos" transform="translate(-557.000000, -132.000000)">
            <g id="PICTOS-/-Rythme" transform="translate(600, 150) scale(3.0)" fill="#F8005B">
                <path d="M40.8570614,59.2499526 C40.8570614,59.9905438 40.361845,60.4842713 39.6190205,60.4842713 L12.3809795,60.4842713 C11.6379648,60.4842713 11.1427485,59.9905438 11.1427485,59.2499526 L11.1427485,50.6093424 C11.1427485,49.8685616 11.6379648,49.3750237 12.3809795,49.3750237 L39.6190205,49.3750237 C40.361845,49.3750237 40.8570614,49.8685616 40.8570614,50.6093424 L40.8570614,59.2499526 Z M39.6190205,45.671878 L12.3809795,45.671878 C9.65709939,45.671878 7.42843559,47.8936516 7.42843559,50.6093424 L7.42843559,59.2499526 C7.42843559,61.9654538 9.65709939,64.187417 12.3809795,64.187417 L39.6190205,64.187417 C42.3427104,64.187417 44.5713742,61.9654538 44.5713742,59.2499526 L44.5713742,50.6093424 C44.5713742,47.8936516 42.3427104,45.671878 39.6190205,45.671878 Z M40.8570614,41.3515729 C40.8570614,42.3390278 41.72369,43.2030509 42.7143129,43.2030509 C43.7047456,43.2030509 44.5713742,42.3390278 44.5713742,41.3515729 L44.5713742,38.2655865 L40.8570614,38.2655865 L40.8570614,41.3515729 Z M25.9998098,17.2812204 C15.72369,17.2812204 7.42843559,25.5515349 7.42843559,35.7969491 L11.1427485,35.7969491 C11.1427485,27.6498768 17.8285497,20.9843661 25.9998098,20.9843661 C34.1714503,20.9843661 40.8570614,27.6498768 40.8570614,35.7969491 L44.5713742,35.7969491 C44.5713742,25.5515349 36.2761198,17.2812204 25.9998098,17.2812204 Z M48.2856871,67.8905628 L3.71412271,67.8905628 L3.71412271,35.7969491 C3.71412271,29.1312488 6.68561105,23.0828975 11.3903567,19.0094562 L12.5047836,18.1452435 L13.2476082,17.651516 L14.361845,16.9109248 C17.7047456,14.8123933 21.7904708,13.5780746 25.9998098,13.5780746 C30.3333333,13.5780746 34.2952544,14.8123933 37.7619591,16.9109248 L38.8760057,17.651516 L39.6190205,18.2686753 L40.6094532,19.0094562 C45.3141988,23.0828975 48.2856871,29.0078169 48.2856871,35.7969491 L48.2856871,67.8905628 Z M48.2856871,74.0623459 C48.2856871,74.8029372 47.7904708,75.2968543 47.0476462,75.2968543 L4.95235378,75.2968543 C4.20933907,75.2968543 3.71412271,74.6796949 3.71412271,74.0623459 L3.71412271,71.5937085 L48.2856871,71.5937085 L48.2856871,74.0623459 Z M6.19039469,6.17197276 C6.19039469,4.81403258 7.3046315,3.70314574 8.66647649,3.70314574 C10.0285117,3.70314574 11.1427485,4.81403258 11.1427485,6.17197276 L11.1427485,14.5655296 C9.28568712,15.8000379 7.67604377,17.4046522 6.19039469,19.0094562 L6.19039469,6.17197276 Z M40.8570614,6.17197276 C40.8570614,4.81403258 41.9712982,3.70314574 43.3333333,3.70314574 C44.6951783,3.70314574 45.8096053,4.81403258 45.8096053,6.17197276 L45.8096053,19.0094562 C44.3237661,17.2812204 42.7143129,15.8000379 40.8570614,14.5655296 L40.8570614,6.17197276 Z M49.523728,24.6875119 L49.523728,6.17197276 C49.523728,2.71569077 46.800038,0 43.3333333,0 C39.8666286,0 37.1427485,2.71569077 37.1427485,6.17197276 L37.1427485,12.3437559 C33.800038,10.7391416 29.9617309,9.8749289 25.9998098,9.8749289 C22.0380789,9.8749289 18.199962,10.7391416 14.8570614,12.3437559 L14.8570614,6.17197276 C14.8570614,2.71569077 12.1331812,0 8.66647649,0 C5.19996196,0 2.4760818,2.71569077 2.4760818,6.17197276 L2.4760818,24.6875119 C0.866628632,28.020362 0,31.8469396 0,35.7969491 L0,74.0623459 C0,76.7780367 2.22847362,79 4.95235378,79 L47.0476462,79 C49.7713362,79 52,76.7780367 52,74.0623459 L52,35.7969491 C52,31.8469396 51.1333714,28.020362 49.523728,24.6875119 Z" id="Fill-1"></path>
            </g>
        </g>
    </g>
</svg>