<?xml version="1.0" encoding="UTF-8"?>
<svg width="223px" height="223px" viewBox="0 0 223 227" version="1.1" xmlns="http://www.w3.org/2000/svg" xmlns:xlink="http://www.w3.org/1999/xlink">
    <!-- Generator: Sketch 52.2 (67145) - http://www.bohemiancoding.com/sketch -->
    <title>PICTOS / Time</title>
    <desc>Created with Sketch.</desc>
    <defs>
        <ellipse id="path-1" cx="8.05668605" cy="8.29081197" rx="8.05668605" ry="8.29081197"></ellipse>
    </defs>
    <g id="Tools-Kit" stroke="none" stroke-width="1" fill="none" fill-rule="evenodd">
        <g id="10_Pictos" transform="translate(-92.000000, -185.000000)">
            <g id="PICTOS-/-Time" transform="translate(110, 190) scale(8.0)">
                <g id="stopwatch">
                    <ellipse id="Oval" fill="#FF9811" fill-rule="nonzero" cx="10.6642442" cy="15.7903846" rx="8.05668605" ry="8.29081197"></ellipse>
                    <g id="Rectangle" transform="translate(2.607558, 7.499573)">
                        <mask id="mask-2" fill="white">
                            <use xlink:href="#path-1"></use>
                        </mask>
                        <use id="Mask" fill="#E6EDFA" fill-rule="nonzero" xlink:href="#path-1"></use>
                    </g>
                    <path d="M12.3742674,4.95033718 L12.3742674,2.75213675 L10.7027558,2.75213675 L9.03124419,2.75213675 L9.03124419,4.95033718 C9.57588953,4.86233761 10.1340407,4.81623932 10.7027558,4.81623932 C11.2714709,4.81623932 11.8296221,4.86233761 12.3742674,4.95033718 Z" id="XMLID_1431_" fill="#7A818E" fill-rule="nonzero"></path>
                    <polygon id="XMLID_1432_" fill="#0C1C49" fill-rule="nonzero" points="12.3742674 2.75213675 14.0457791 2.75213675 14.0457791 0 10.7027558 0 10.7027558 2.75213675"></polygon>
                    <polygon id="XMLID_1433_" fill="#009EE0" fill-rule="nonzero" points="10.7027558 0 7.35973256 0 7.35973256 2.75213675 9.03124419 2.75213675 10.7027558 2.75213675"></polygon>
                    <path d="M18.9430407,8.8046359 L20.3946483,7.31084487 L18.9763372,5.85124915 L17.5247297,7.34504017 C18.0405581,7.78496923 18.5155349,8.27381752 18.9430407,8.8046359 Z" id="XMLID_1434_" fill="#7A818E" fill-rule="nonzero"></path>
                    <polygon id="XMLID_1435_" fill="#0C1C49" fill-rule="nonzero" points="22.9949186 7.06755598 19.212689 3.17541538 17.7944448 4.63494231 18.9763372 5.85124915 21.5766076 8.52708291"></polygon>
                    <path d="M2.6795,15.8247863 C2.6795,11.2649774 6.27164535,7.56837607 10.7027558,7.56837607 L10.7027558,4.81623932 C10.1340407,4.81623932 9.57588953,4.86233761 9.03124419,4.95033718 C3.91715407,5.77611581 0.00508139535,10.3301453 0.00508139535,15.8247863 C0.00508139535,21.9046004 4.79463081,26.8333333 10.7027558,26.8333333 L10.7027558,24.0811966 C6.27164535,24.0811966 2.6795,20.3845265 2.6795,15.8247863 Z" id="XMLID_1436_" fill="#009EE0" fill-rule="nonzero"></path>
                    <path d="M17.5247297,7.34504017 C16.0791395,6.11208291 14.3130872,5.26339274 12.3742674,4.95033718 C11.8296221,4.86233761 11.2714709,4.81623932 10.7027558,4.81623932 L10.7027558,7.56837607 C15.1338663,7.56837607 18.7260116,11.2649774 18.7260116,15.8247863 C18.7260116,20.3845265 15.1338663,24.0811966 10.7027558,24.0811966 L10.7027558,26.8333333 C16.6108808,26.8333333 21.4004302,21.9046004 21.4004302,15.8247863 C21.4004302,13.1565209 20.477689,10.7101466 18.9430407,8.8046359 C18.5155349,8.27381752 18.0405581,7.78496923 17.5247297,7.34504017 Z" id="XMLID_1437_" fill="#0C1C49" fill-rule="nonzero"></path>
                </g>
            </g>
        </g>
    </g>
</svg>