<?xml version="1.0" encoding="UTF-8"?>
<svg width="177px" height="177px" viewBox="0 0 177 219" version="1.1" xmlns="http://www.w3.org/2000/svg" xmlns:xlink="http://www.w3.org/1999/xlink">
    <!-- Generator: Sketch 52.2 (67145) - http://www.bohemiancoding.com/sketch -->
    <title>PICTOS / Warning</title>
    <desc>Created with Sketch.</desc>
    <g id="Tools-Kit" stroke="none" stroke-width="1" fill="none" fill-rule="evenodd">
        <g id="10_Pictos" transform="translate(0.000000, -18.000000)">
            <g id="PICTOS-/-Warning" transform="translate(-20, 20)">
                <g id="warning" transform="scale(11.0)">
                    <path d="M18.5805078,15.117562 L11.5116797,2.0687624 C11.1953516,1.52706612 10.6211328,1.20909091 10,1.20909091 C9.37886719,1.20909091 8.80464844,1.52710537 8.48832031,2.0687624 L1.41949219,15.117562 C1.09140625,15.6711136 1.09140625,16.3423161 1.40785156,16.8958678 C1.72421875,17.4611178 2.29839844,17.7909091 2.93128906,17.7909091 L17.0687891,17.7909091 C17.7016406,17.7909091 18.2758594,17.4611178 18.5922266,16.8958678 C18.9085938,16.3423161 18.9085938,15.6711136 18.5805078,15.117562 Z" id="Shape" fill="#FFD300" fill-rule="nonzero"></path>
                    <path d="M18.5921875,16.8958678 C18.2758203,17.4611178 17.7016406,17.7909091 17.06875,17.7909091 L10,17.7909091 L10,1.20909091 C10.6211328,1.20909091 11.1953516,1.52710537 11.5116797,2.0687624 L18.5805078,15.117562 C18.9085938,15.6711136 18.9085938,16.3423161 18.5921875,16.8958678 Z" id="Shape" fill="#FFBB00" fill-rule="nonzero"></path>
                    <g id="Group" transform="translate(9.062500, 5.692149)" fill="#1B2F65" fill-rule="nonzero">
                        <path d="M0.9375,9.63187996 C0.4206875,9.63187996 0,9.20875526 0,8.68894868 C0,8.1691421 0.4206875,7.74601741 0.9375,7.74601741 C1.4543125,7.74601741 1.875,8.1691421 1.875,8.68894868 C1.875,9.20875526 1.4543125,9.63187996 0.9375,9.63187996 Z" id="Shape"></path>
                        <path d="M1.875,5.66387386 C1.875,6.18368045 1.4543125,6.60680514 0.9375,6.60680514 C0.4206875,6.60680514 0,6.18368045 0,5.66387386 L0,0.949217484 C0,0.429410903 0.4206875,0.00628620851 0.9375,0.00628620851 C1.4543125,0.00628620851 1.875,0.429410903 1.875,0.949217484 L1.875,5.66387386 Z" id="Shape"></path>
                    </g>
                    <g id="Group" transform="translate(10.000000, 5.692149)" fill="#0C1C49" fill-rule="nonzero">
                        <path d="M1,8.68894868 C1,8.1691421 0.551266667,7.74601741 0,7.74601741 L0,9.63187996 C0.551266667,9.63187996 1,9.20875526 1,8.68894868 Z" id="Shape"></path>
                        <path d="M1,5.66387386 L1,0.949217484 C1,0.429410903 0.551266667,0.00628620851 0,0.00628620851 L0,6.60680514 C0.551266667,6.60680514 1,6.18368045 1,5.66387386 Z" id="Shape"></path>
                    </g>
                </g>
            </g>
        </g>
    </g>
</svg>


